<svg width="361" height="312" viewBox="0 0 361 312" fill="none" xmlns="http://www.w3.org/2000/svg">
<path d="M350.751 211.188H7.70497C7.41694 211.188 7.12891 210.972 7.12891 210.612C7.12891 210.252 7.34493 210.036 7.70497 210.036H350.751C351.039 210.036 351.327 210.252 351.327 210.612C351.327 210.972 351.039 211.188 350.751 211.188Z" fill="#A0A0A0"/>
<path d="M43.9122 102.686L21.8345 103.816L27.4403 213.341L49.518 212.211L43.9122 102.686Z" fill="white"/>
<path d="M27.5054 213.925C27.3614 213.925 27.2174 213.853 27.1454 213.781C27.0014 213.709 27.0014 213.565 27.0014 213.421L21.3848 103.897C21.3848 103.609 21.6008 103.321 21.8888 103.321L43.9953 102.169C44.2833 102.169 44.4993 102.385 44.5713 102.673L50.188 212.197C50.188 212.485 49.9719 212.773 49.6839 212.773L27.5054 213.925ZM22.4649 104.329L28.0095 212.773L49.0358 211.693L43.4912 103.249L22.4649 104.329Z" fill="#A0A0A0"/>
<path d="M21.8928 103.821L18.9443 103.972L24.5501 213.498L27.4986 213.347L21.8928 103.821Z" fill="white"/>
<path d="M24.5535 214.069C24.2655 214.069 24.0495 213.853 23.9775 213.565L18.3608 104.041C18.3608 103.753 18.5769 103.465 18.8649 103.465L21.8172 103.321C21.9612 103.321 22.1053 103.393 22.1773 103.465C22.2493 103.537 22.3213 103.681 22.3213 103.825L27.9379 213.349C27.9379 213.493 27.8659 213.637 27.7939 213.709C27.7219 213.781 27.5779 213.853 27.4338 213.853L24.5535 214.069ZM19.441 104.545L24.9856 212.989L26.8578 212.917L21.3132 104.401L19.441 104.545Z" fill="#A0A0A0"/>
<path d="M22.8241 110.233C22.5361 110.233 22.248 110.017 22.248 109.657C22.248 109.297 22.4641 109.081 22.8241 109.081L27.0006 108.865C27.2886 108.865 27.5766 109.081 27.5766 109.369C27.5766 109.657 27.3606 109.945 27.0726 109.945L22.8241 110.233Z" fill="#A0A0A0"/>
<path d="M23.1845 117.579C22.8964 117.579 22.6804 117.363 22.6084 117.075C22.6084 116.787 22.8244 116.498 23.1125 116.498L27.4329 116.282C27.721 116.282 27.937 116.498 28.009 116.787C28.009 117.075 27.793 117.363 27.5049 117.363L23.1845 117.579Z" fill="#A0A0A0"/>
<path d="M23.5443 124.996C23.2563 124.996 23.0403 124.78 22.9683 124.492C22.9683 124.203 23.1843 123.915 23.4723 123.915L30.7451 123.555C31.0332 123.555 31.2492 123.771 31.3212 124.059C31.3212 124.348 31.1052 124.636 30.8171 124.636L23.5443 124.996Z" fill="#A0A0A0"/>
<path d="M23.9042 132.34C23.6162 132.34 23.4001 132.124 23.3281 131.836C23.3281 131.548 23.5441 131.26 23.8322 131.26L28.0086 131.044C28.2967 131.044 28.5847 131.26 28.5847 131.548C28.5847 131.836 28.3687 132.124 28.0807 132.124L23.9042 132.34Z" fill="#A0A0A0"/>
<path d="M24.3373 139.685C24.0493 139.685 23.7612 139.469 23.7612 139.109C23.7612 138.749 23.9773 138.533 24.3373 138.533L28.7298 138.317C29.0178 138.317 29.3058 138.533 29.3058 138.821C29.3058 139.109 29.0898 139.397 28.8018 139.397L24.3373 139.685Z" fill="#A0A0A0"/>
<path d="M24.6976 147.03C24.4096 147.03 24.1216 146.814 24.1216 146.454C24.1216 146.094 24.3376 145.878 24.6976 145.878L31.8984 145.518C32.1865 145.518 32.4745 145.734 32.4745 146.022C32.4745 146.31 32.2585 146.598 31.9705 146.598L24.6976 147.03Z" fill="#A0A0A0"/>
<path d="M63.7845 130.817L55.9302 220.772L65.1122 221.574L72.9665 131.619L63.7845 130.817Z" fill="white"/>
<path d="M65.0927 222.134L55.8756 221.342C55.5876 221.342 55.3716 221.054 55.3716 220.766L63.2205 130.756C63.2205 130.468 63.5085 130.252 63.7965 130.252L73.0135 131.044C73.1576 131.044 73.3016 131.116 73.3736 131.26C73.4456 131.404 73.5176 131.476 73.5176 131.62L65.6687 221.63C65.5967 221.918 65.3807 222.134 65.0927 222.134ZM56.4517 220.334L64.5886 221.054L72.3655 132.124L64.2286 131.404L56.4517 220.334Z" fill="#A0A0A0"/>
<path d="M72.9431 131.62C72.9431 131.62 71.4309 132.844 68.2626 132.844C66.5344 132.916 64.8062 132.196 63.7261 130.756L67.1825 121.971L69.7027 115.562L71.0709 122.331L72.9431 131.62Z" fill="white"/>
<path d="M68.2603 133.421C66.3161 133.493 64.4439 132.628 63.2918 131.116C63.2198 130.972 63.1478 130.756 63.2198 130.612L69.1964 115.419C69.3404 115.13 69.6285 114.986 69.9165 115.13C70.0605 115.202 70.2045 115.346 70.2045 115.491L73.4449 131.476C73.5169 131.692 73.4449 131.836 73.3009 131.98C73.2289 132.052 71.6447 133.421 68.2603 133.421ZM64.3719 130.684C65.38 131.764 66.8202 132.34 68.2603 132.268C69.7005 132.34 71.0686 131.98 72.3648 131.332L69.5565 117.507L64.3719 130.684Z" fill="#A0A0A0"/>
<path d="M71.071 122.331L67.1826 121.971L69.7029 115.562L71.071 122.331Z" fill="#00ADEF"/>
<path d="M71.0712 122.691L67.1828 122.331C67.0388 122.331 66.9668 122.259 66.8948 122.187C66.8228 122.115 66.8228 121.971 66.8228 121.899L69.343 115.49C69.415 115.346 69.5591 115.274 69.7031 115.274C69.8471 115.274 69.9911 115.418 69.9911 115.562L71.3593 122.331C71.3593 122.475 71.3593 122.547 71.2872 122.619C71.2872 122.691 71.2152 122.691 71.0712 122.691ZM67.7589 121.683L70.6392 121.971L69.6311 116.931L67.7589 121.683Z" fill="#00ADEF"/>
<path d="M53.6117 128.722L47.4297 199.524L54.6748 200.156L60.8568 129.354L53.6117 128.722Z" fill="white"/>
<path d="M54.5811 200.748L47.3083 200.1C47.1642 200.1 47.0202 200.028 46.9482 199.884C46.8762 199.739 46.8042 199.595 46.8042 199.523L52.9969 128.668C52.9969 128.38 53.2849 128.164 53.573 128.164L60.7737 128.812C60.9178 128.812 61.0618 128.884 61.1338 129.028C61.2058 129.172 61.2778 129.316 61.2778 129.46L55.0851 200.244C55.1571 200.532 54.8691 200.748 54.5811 200.748ZM47.9563 199.019L54.077 199.523L60.1977 129.748L54.077 129.172L47.9563 199.019Z" fill="#A0A0A0"/>
<path d="M60.7743 129.316C59.9102 130.324 58.614 130.828 57.2459 130.756C55.8057 130.612 54.4376 129.82 53.5015 128.668L56.2378 121.755L58.182 116.715L59.2621 122.043L60.7743 129.316Z" fill="white"/>
<path d="M57.5314 131.332H57.2434C55.5872 131.188 54.1471 130.324 53.1389 129.028C53.0669 128.884 52.9949 128.668 53.0669 128.524L57.7475 116.57C57.8195 116.354 58.0355 116.21 58.3235 116.21C58.5395 116.21 58.7556 116.426 58.8276 116.642L61.3479 129.244C61.3479 129.388 61.3479 129.532 61.2758 129.676C60.3397 130.756 58.9716 131.404 57.5314 131.332ZM54.2191 128.596C55.0112 129.532 56.0913 130.108 57.3154 130.252C58.3955 130.324 59.4036 129.892 60.1957 129.172L58.0355 118.658L54.2191 128.596Z" fill="#A0A0A0"/>
<path d="M59.3329 122.043L56.3086 121.827L58.2528 116.786L59.3329 122.043Z" fill="white"/>
<path d="M59.3323 122.618L56.236 122.33C56.092 122.33 55.948 122.186 55.8039 122.042C55.7319 121.898 55.7319 121.754 55.7319 121.538L57.6761 116.497C57.7482 116.281 57.9642 116.137 58.2522 116.137C58.4682 116.137 58.6843 116.353 58.7563 116.569L59.8364 121.898C59.8364 122.042 59.8364 122.258 59.6924 122.33C59.6204 122.546 59.4763 122.618 59.3323 122.618ZM57.0281 121.322L58.6123 121.466L58.0362 118.658L57.0281 121.322Z" fill="#A0A0A0"/>
<path d="M51.0521 200.459C50.6921 200.459 50.4761 200.171 50.4761 199.883L56.7408 130.756C56.7408 130.468 57.0288 130.252 57.3168 130.252C57.6049 130.252 57.8209 130.54 57.8209 130.828V130.9L51.5562 200.027C51.5562 200.315 51.3402 200.459 51.0521 200.459Z" fill="#A0A0A0"/>
<path d="M40.4827 148.085L39.4272 175.066L47.054 175.364L48.1094 148.383L40.4827 148.085Z" fill="white"/>
<path d="M47.092 175.905L39.4591 175.617C39.1711 175.617 38.9551 175.329 38.9551 175.041L40.0352 148.038C40.0352 147.894 40.1072 147.75 40.1792 147.678C40.2512 147.606 40.3952 147.534 40.5393 147.534L48.1721 147.822C48.4601 147.822 48.6762 148.11 48.6762 148.398L47.596 175.401C47.596 175.545 47.524 175.689 47.452 175.761C47.38 175.833 47.236 175.905 47.092 175.905ZM39.9632 174.537L46.5159 174.825L47.524 148.902L40.8993 148.614L39.9632 174.537Z" fill="#A0A0A0"/>
<path d="M39.9723 120.898L38.9141 147.951L49.6347 148.371L50.6929 121.317L39.9723 120.898Z" fill="#F6FDFF"/>
<path d="M49.6846 148.902L38.8835 148.47C38.5954 148.47 38.3794 148.182 38.3794 147.894L39.4595 120.891C39.4595 120.602 39.7475 120.386 40.0356 120.386L50.7648 120.819C50.9088 120.819 51.0528 120.891 51.1248 120.963C51.1968 121.035 51.2688 121.179 51.2688 121.323L50.1887 148.326C50.1887 148.686 49.9727 148.902 49.6846 148.902ZM39.4595 147.461L49.1086 147.822L50.1167 121.899L40.4676 121.539L39.4595 147.461Z" fill="#A0A0A0"/>
<path d="M35.4269 145.733C35.1389 145.733 34.9229 145.445 34.9229 145.157L35.6429 126.363C35.6429 125.355 36.147 124.419 36.8671 123.699C37.5871 122.979 38.5953 122.619 39.6034 122.691H40.1074C40.3955 122.691 40.6115 122.979 40.6115 123.267C40.6115 123.555 40.3234 123.771 40.0354 123.771H39.5314C38.8113 123.771 38.0912 123.987 37.5151 124.491C37.0111 124.995 36.651 125.715 36.651 126.435L35.931 145.229C36.003 145.517 35.7869 145.805 35.4269 145.733Z" fill="#A0A0A0"/>
<path d="M16.0571 150.701H76.6158L73.0874 222.781C73.0874 226.742 69.8471 229.982 65.8867 229.982H26.7863C22.8259 229.982 19.6575 226.742 19.5855 222.781L16.0571 150.701Z" fill="white"/>
<path d="M65.8858 230.559H26.7855C22.537 230.559 19.0806 227.103 19.0806 222.854L15.5522 150.774C15.5522 150.63 15.6243 150.486 15.6963 150.342C15.7683 150.27 15.9123 150.198 16.0563 150.198H76.615C76.903 150.198 77.1191 150.414 77.1911 150.702C77.1911 150.702 77.1911 150.702 77.1911 150.774L73.6627 222.854C73.5907 227.103 70.1343 230.559 65.8858 230.559ZM16.6324 151.278L20.1608 222.782C20.1608 226.455 23.1131 229.407 26.7855 229.407H65.8858C69.5582 229.407 72.5106 226.455 72.5106 222.782L76.0389 151.206L16.6324 151.278Z" fill="#A0A0A0"/>
<path d="M75.4638 164.455H17.3534C17.0654 164.455 16.7773 164.239 16.7773 163.879C16.7773 163.519 16.9934 163.303 17.3534 163.303H75.4638C75.7519 163.303 76.0399 163.519 76.0399 163.879C76.0399 164.239 75.7519 164.455 75.4638 164.455Z" fill="#A0A0A0"/>
<path d="M352.339 116.21H311.439V156.751H352.339V116.21Z" fill="white"/>
<path d="M352.34 157.326H311.439C311.151 157.326 310.935 157.11 310.863 156.75V116.21C310.863 115.922 311.079 115.706 311.439 115.634H352.34C352.628 115.634 352.916 115.85 352.916 116.21V156.75C352.916 157.11 352.628 157.326 352.34 157.326ZM311.943 156.246H351.764V116.786H311.943V156.246Z" fill="#A0A0A0"/>
<path d="M335.994 109.585H328.577V121.106H335.994V109.585Z" fill="#66CEF5"/>
<path d="M345.717 126.147H323.827C323.539 126.147 323.251 125.931 323.251 125.571C323.251 125.211 323.467 124.995 323.827 124.995H345.717C346.006 124.995 346.294 125.211 346.294 125.571C346.294 125.931 346.078 126.147 345.717 126.147Z" fill="#A0A0A0"/>
<path d="M345.715 133.852H317.632C317.344 133.852 317.056 133.636 317.056 133.276C317.056 132.916 317.272 132.7 317.632 132.7H345.715C346.003 132.7 346.291 132.916 346.291 133.276C346.291 133.636 346.075 133.852 345.715 133.852Z" fill="#A0A0A0"/>
<path d="M345.931 141.485H317.632C317.344 141.485 317.056 141.269 317.056 140.909C317.056 140.549 317.272 140.333 317.632 140.333H345.931C346.219 140.333 346.507 140.549 346.507 140.909C346.507 141.269 346.219 141.485 345.931 141.485Z" fill="#A0A0A0"/>
<path d="M334.986 149.189H317.632C317.344 149.189 317.056 148.973 317.056 148.613C317.056 148.253 317.272 148.037 317.632 148.037H334.986C335.274 148.037 335.562 148.253 335.562 148.613C335.562 148.973 335.274 149.189 334.986 149.189Z" fill="#A0A0A0"/>
<path d="M286.806 91.7992H122.34C118.884 91.7272 115.931 94.4635 115.859 97.9199C115.859 98.352 115.859 98.712 115.931 99.1441L131.701 219.037C132.349 223.214 135.806 226.31 140.054 226.382H304.52C308.049 226.454 310.929 223.718 311.001 220.189C311.001 219.757 311.001 219.397 310.929 218.965L295.159 99.072C294.511 94.9676 290.983 91.8712 286.806 91.7992Z" fill="#060B13"/>
<path d="M304.449 226.957H139.983C135.519 226.813 131.774 223.501 131.126 219.108L115.357 99.2151C115.068 97.1989 115.645 95.1106 117.013 93.5264C118.381 92.0143 120.325 91.1502 122.341 91.2222H286.808C291.272 91.3662 295.016 94.6786 295.665 99.0711L311.362 219.036C311.65 221.053 311.074 223.141 309.706 224.725C308.41 226.165 306.466 227.029 304.449 226.957ZM122.341 92.3023C120.613 92.2303 118.957 92.9504 117.877 94.2465C116.725 95.5427 116.221 97.3429 116.509 99.0711L132.206 219.036C132.782 222.925 136.095 225.805 139.983 225.949H304.449C306.178 225.949 307.834 225.301 308.914 224.005C310.066 222.709 310.57 220.909 310.282 219.18L294.584 99.2151C294.008 95.3266 290.696 92.3743 286.808 92.3023H122.341Z" fill="#060B13"/>
<path d="M107.868 110.882H289.184L271.11 219.038C270.318 223.215 266.718 226.239 262.469 226.383H95.9149C91.8104 226.383 89.0741 223.071 89.7942 219.038L107.868 110.882Z" fill="white"/>
<path d="M262.468 226.959H95.9139C93.8977 227.031 91.9535 226.167 90.6573 224.654C89.3612 223.07 88.8571 220.982 89.2172 218.966L107.291 110.81C107.363 110.522 107.579 110.378 107.795 110.378H289.111C289.399 110.378 289.615 110.594 289.615 110.954V111.026L271.541 219.182C270.821 223.574 267.005 226.815 262.468 226.959ZM108.371 111.458L90.3693 219.182C90.0093 220.91 90.4413 222.638 91.5934 224.006C92.6736 225.302 94.3297 226.022 95.9859 225.95H262.54C266.501 225.806 269.885 222.926 270.605 219.038L288.607 111.458H108.371Z" fill="#060B13"/>
<path d="M118.45 91.7998H285.005C289.037 91.7998 291.846 95.1122 291.126 99.1446L289.181 110.882H107.865L109.809 99.1446C110.602 94.9682 114.202 91.9438 118.45 91.7998Z" fill="#00ADEF"/>
<path d="M289.181 111.386H107.865C107.721 111.386 107.577 111.314 107.433 111.17C107.361 111.026 107.289 110.882 107.289 110.738L109.233 99.001C110.097 94.6085 113.842 91.3681 118.378 91.1521H284.933C286.949 91.0801 288.821 91.9442 290.189 93.4564C291.485 95.0406 291.99 97.1288 291.629 99.145L289.685 110.882C289.685 111.242 289.469 111.386 289.181 111.386ZM108.513 110.306H288.749L290.621 99.073C290.981 97.3448 290.549 95.6166 289.397 94.2485C288.317 92.9523 286.661 92.3043 285.005 92.3043H118.45C114.49 92.4483 111.105 95.3286 110.385 99.217L108.513 110.306Z" fill="#060B13"/>
<path d="M274.566 143.646H116.221C115.933 143.646 115.645 143.43 115.645 143.069C115.645 142.709 115.861 142.493 116.221 142.493H274.566C274.854 142.493 275.142 142.709 275.142 143.069C275.142 143.43 274.854 143.646 274.566 143.646Z" fill="#A0A0A0"/>
<path d="M270.678 166.976H112.333C112.045 166.976 111.757 166.76 111.757 166.4C111.757 166.04 111.973 165.824 112.333 165.824H270.678C270.966 165.824 271.255 166.04 271.255 166.4C271.255 166.76 270.966 166.976 270.678 166.976Z" fill="#A0A0A0"/>
<path d="M266.718 190.306H108.372C108.084 190.306 107.796 190.09 107.796 189.73C107.796 189.37 108.012 189.154 108.372 189.154H266.718C267.006 189.154 267.294 189.37 267.294 189.73C267.294 190.09 267.078 190.306 266.718 190.306Z" fill="#A0A0A0"/>
<path d="M249.145 226.095L272.691 207.661H259.082C255.121 207.805 251.809 210.613 251.089 214.501L249.145 226.095Z" fill="white"/>
<path d="M249.148 226.67C249.076 226.67 248.932 226.67 248.86 226.598C248.644 226.454 248.572 226.238 248.572 226.022L250.516 214.429C251.309 210.325 254.837 207.3 259.013 207.156H272.623C272.911 207.156 273.199 207.372 273.199 207.66C273.199 207.804 273.127 208.02 272.983 208.092L249.436 226.526C249.364 226.598 249.292 226.67 249.148 226.67ZM259.085 208.236C255.413 208.38 252.317 211.045 251.597 214.645L249.868 224.798L271.111 208.236H259.085Z" fill="#060B13"/>
<path d="M237.48 104.76C237.12 104.76 236.832 104.688 236.544 104.472C230.855 101.159 228.911 93.8146 232.223 88.0539C235.536 82.3653 242.88 80.4211 248.641 83.7335C250.657 84.9576 252.313 86.6858 253.394 88.846C253.826 89.8541 253.322 90.9342 252.385 91.3663C251.521 91.7263 250.441 91.3663 249.937 90.5022C247.993 86.4698 243.096 84.7416 238.992 86.7578C236.184 88.1259 234.383 91.0063 234.383 94.1026C234.383 96.9829 235.968 99.7192 238.416 101.159C239.352 101.663 239.712 102.816 239.208 103.752C238.92 104.472 238.2 104.832 237.48 104.76Z" fill="#060B13"/>
<path d="M237.483 105.337C237.051 105.337 236.619 105.193 236.259 104.977C230.282 101.521 228.266 93.8158 231.722 87.8392C233.955 83.9507 238.131 81.5745 242.596 81.5745C247.42 81.5745 251.741 84.3108 253.829 88.6312C254.405 89.8554 253.901 91.2955 252.677 91.9436C251.453 92.5197 250.012 92.0156 249.364 90.7915C247.564 86.9751 242.956 85.4629 239.211 87.2631C236.619 88.5592 234.891 91.2235 234.891 94.1038C234.891 96.8401 236.331 99.2884 238.707 100.657C239.859 101.305 240.291 102.817 239.571 104.041C239.211 104.833 238.347 105.337 237.483 105.337ZM242.524 82.6546C236.187 82.6546 231.074 87.7671 231.074 94.1038C231.074 98.2083 233.235 101.953 236.763 104.041C237.411 104.401 238.275 104.185 238.635 103.537C238.995 102.889 238.779 102.025 238.131 101.665C233.955 99.2884 232.587 93.9598 234.963 89.7834C236.547 87.1191 239.355 85.4629 242.452 85.4629C245.764 85.4629 248.788 87.3351 250.301 90.3594C250.661 91.0075 251.453 91.2955 252.173 91.0075C252.533 90.8635 252.749 90.5755 252.893 90.2154C253.037 89.8554 252.965 89.4953 252.821 89.1353C250.949 85.1749 246.916 82.6546 242.524 82.6546Z" fill="#060B13"/>
<path d="M194.349 104.76C193.989 104.76 193.701 104.688 193.413 104.472C187.725 101.159 185.78 93.8146 189.093 88.0539C192.405 82.3653 199.75 80.4211 205.511 83.7335C207.599 84.9576 209.183 86.6858 210.263 88.846C210.695 89.8541 210.191 90.9342 209.255 91.3663C208.391 91.7263 207.311 91.3663 206.807 90.5022C204.863 86.4698 199.966 84.7416 195.934 86.7578C193.125 88.1259 191.325 91.0063 191.325 94.1026C191.325 96.9829 192.909 99.7192 195.358 101.159C196.294 101.663 196.654 102.816 196.15 103.752C195.718 104.472 195.069 104.832 194.349 104.76Z" fill="#060B13"/>
<path d="M194.35 105.337C193.918 105.337 193.486 105.193 193.126 104.977C187.149 101.521 185.133 93.8158 188.59 87.8392C190.822 83.9507 194.998 81.5745 199.463 81.5745C204.287 81.5745 208.608 84.3108 210.696 88.6312C211.272 89.8554 210.768 91.2955 209.616 91.8716C208.392 92.4477 206.952 91.9436 206.304 90.7195C204.503 86.9031 199.895 85.3909 196.15 87.1911C193.558 88.4872 191.83 91.1515 191.83 94.0318C191.83 96.7681 193.27 99.2164 195.646 100.585C196.799 101.233 197.231 102.745 196.511 103.969C196.006 104.833 195.214 105.337 194.35 105.337ZM199.391 82.6546C193.054 82.6546 187.942 87.7671 187.942 94.1038C187.942 98.2083 190.102 101.953 193.63 104.041C194.278 104.401 195.142 104.185 195.502 103.537C195.862 102.889 195.646 102.025 194.998 101.665C190.822 99.2164 189.454 93.9598 191.83 89.7834C194.278 85.6069 199.535 84.2388 203.711 86.615C205.223 87.4791 206.376 88.7753 207.168 90.2874C207.312 90.6475 207.6 90.8635 207.96 91.0075C208.32 91.1515 208.68 91.0795 209.04 90.9355C209.688 90.5755 209.976 89.7834 209.688 89.0633C207.816 85.1749 203.783 82.6546 199.391 82.6546Z" fill="#060B13"/>
<path d="M151.215 104.761C150.855 104.761 150.567 104.689 150.279 104.473C144.59 101.088 142.646 93.7434 146.03 88.0548C148.19 84.3824 152.079 82.1501 156.327 82.1501C160.936 82.1501 165.112 84.7424 167.128 88.9189C167.561 89.855 167.2 91.0071 166.264 91.5112C165.328 92.0152 164.176 91.5832 163.672 90.6471C161.728 86.6146 156.831 84.8865 152.727 86.9027C149.919 88.2708 148.118 91.1511 148.118 94.2475C148.118 97.1278 149.703 99.8641 152.151 101.304C153.087 101.808 153.447 102.96 152.943 103.897C152.583 104.545 151.935 104.905 151.215 104.905V104.761Z" fill="#060B13"/>
<path d="M151.214 105.337C150.782 105.337 150.35 105.193 149.99 104.977C144.013 101.521 141.997 93.8158 145.453 87.8392C147.686 83.9507 151.79 81.5745 156.255 81.5745C161.079 81.5745 165.4 84.3108 167.488 88.6312C168.064 89.8554 167.56 91.2955 166.336 91.9436C165.112 92.5197 163.671 92.0156 163.023 90.7915C161.223 86.9751 156.615 85.4629 152.87 87.2631C150.278 88.5592 148.55 91.2235 148.55 94.1038C148.55 96.8401 149.99 99.2884 152.366 100.657C153.518 101.305 153.95 102.817 153.23 104.041C152.87 104.833 152.078 105.265 151.214 105.337ZM156.255 82.6546C149.918 82.6546 144.805 87.7671 144.805 94.1038C144.805 98.2083 146.966 101.953 150.494 104.041C151.142 104.401 152.006 104.185 152.366 103.537C152.726 102.889 152.51 102.025 151.862 101.665C147.686 99.2884 146.318 93.9598 148.694 89.7834C150.278 87.1191 153.086 85.4629 156.255 85.4629C159.567 85.4629 162.591 87.3351 164.103 90.3594C164.464 91.0075 165.256 91.2955 165.976 91.0075C166.336 90.8635 166.552 90.5755 166.696 90.2154C166.84 89.8554 166.768 89.4953 166.624 89.1353C164.608 85.1749 160.647 82.6546 156.255 82.6546Z" fill="#060B13"/>
<path d="M147.544 88.3435C147.472 88.3435 147.328 88.3435 147.256 88.2715C147.04 88.1275 146.896 87.8395 147.04 87.5514C147.976 86.0393 149.344 84.8152 150.928 84.0951C151.216 83.9511 151.504 84.0951 151.648 84.3831C151.792 84.6711 151.648 84.9592 151.432 85.1032C150.064 85.7513 148.84 86.8314 147.976 88.1275C147.904 88.2715 147.688 88.3435 147.544 88.3435Z" fill="white"/>
<path d="M190.749 88.3435C190.677 88.3435 190.533 88.3435 190.461 88.2715C190.244 88.1275 190.1 87.8395 190.244 87.5514C191.181 86.0393 192.549 84.8152 194.205 84.0951C194.493 83.9511 194.781 84.0951 194.925 84.3831C195.069 84.6711 194.925 84.9592 194.709 85.1032C193.341 85.7513 192.117 86.8314 191.253 88.1275C191.109 88.2715 190.965 88.3435 190.749 88.3435Z" fill="white"/>
<path d="M234.313 88.3435C234.241 88.3435 234.097 88.3435 234.025 88.2715C233.809 88.1275 233.665 87.8395 233.809 87.5514C234.746 86.0393 236.114 84.8152 237.77 84.0951C238.058 83.9511 238.346 84.0951 238.49 84.3831C238.634 84.6711 238.49 84.9592 238.274 85.1032C236.906 85.7513 235.682 86.8314 234.818 88.1275C234.674 88.2715 234.53 88.3435 234.313 88.3435Z" fill="white"/>
<path d="M176.204 162.44C176.06 162.44 175.916 162.368 175.772 162.224L162.954 147.462C162.738 147.246 162.81 146.886 163.026 146.67C163.242 146.454 163.602 146.526 163.818 146.742L176.636 161.504C176.852 161.72 176.78 162.08 176.564 162.296C176.42 162.44 176.348 162.44 176.204 162.44Z" fill="#00ADEF"/>
<path d="M161.007 162.438C160.719 162.438 160.431 162.222 160.431 161.934C160.431 161.79 160.503 161.646 160.647 161.502L178.217 146.885C178.433 146.669 178.793 146.741 179.009 146.957C179.225 147.173 179.153 147.533 178.937 147.749L161.295 162.294C161.223 162.366 161.079 162.366 161.007 162.438Z" fill="#00ADEF"/>
<path d="M245.545 187.067C245.401 187.067 245.257 186.995 245.113 186.851L232.295 172.089C232.079 171.873 232.151 171.513 232.367 171.297C232.584 171.081 232.944 171.153 233.16 171.369L245.977 186.131C246.193 186.347 246.121 186.707 245.905 186.851C245.833 186.995 245.689 187.067 245.545 187.067Z" fill="#00ADEF"/>
<path d="M230.354 186.993C230.209 186.993 230.065 186.921 229.921 186.777C229.705 186.561 229.777 186.201 229.993 185.985L247.563 171.367C247.779 171.151 248.139 171.223 248.283 171.44C248.5 171.656 248.428 172.016 248.211 172.16L230.642 186.777C230.642 186.993 230.498 186.993 230.354 186.993Z" fill="#00ADEF"/>
<path d="M123.419 210.9H123.347C123.059 210.828 122.843 210.54 122.915 210.252L137.533 122.403C137.605 122.115 137.893 121.898 138.181 121.97C138.469 122.043 138.685 122.331 138.613 122.619L123.995 210.396C123.923 210.684 123.707 210.9 123.419 210.9Z" fill="#A0A0A0"/>
<path d="M147.686 210.902H147.613C147.325 210.83 147.109 210.542 147.181 210.254L161.871 122.476C161.943 122.188 162.231 121.972 162.519 122.044C162.807 122.116 163.023 122.404 162.951 122.692L148.262 210.47C148.19 210.686 147.974 210.902 147.686 210.902Z" fill="#A0A0A0"/>
<path d="M172.025 210.902H171.953C171.665 210.83 171.449 210.542 171.521 210.254L186.21 122.476C186.282 122.188 186.57 121.972 186.858 122.044C187.147 122.116 187.363 122.404 187.291 122.692L172.601 210.47C172.457 210.686 172.241 210.902 172.025 210.902Z" fill="#A0A0A0"/>
<path d="M196.291 210.902H196.219C195.931 210.83 195.715 210.542 195.787 210.254L210.477 122.476C210.549 122.188 210.837 121.972 211.125 122.044C211.413 122.116 211.629 122.404 211.557 122.692L196.867 210.47C196.795 210.686 196.507 210.902 196.291 210.902Z" fill="#A0A0A0"/>
<path d="M220.561 210.902H220.489C220.201 210.83 219.985 210.542 220.057 210.254L234.747 122.476C234.819 122.188 235.107 121.972 235.395 122.044C235.683 122.116 235.899 122.404 235.827 122.692L221.065 210.47C220.993 210.686 220.849 210.902 220.561 210.902Z" fill="#A0A0A0"/>
<path d="M244.825 210.902H244.753C244.465 210.83 244.249 210.542 244.321 210.254L259.01 122.476C259.082 122.188 259.298 121.972 259.586 122.044C259.874 122.116 260.09 122.404 260.018 122.692L245.401 210.47C245.329 210.686 245.113 210.902 244.825 210.902Z" fill="#A0A0A0"/>
</svg>
