<svg width="313" height="312" viewBox="0 0 313 312" fill="none" xmlns="http://www.w3.org/2000/svg">
<path d="M254.281 237.37C254.281 237.37 248.727 226.262 248.415 219.211C248.103 212.16 243.173 174.533 239.18 161.866C235.186 149.198 219.212 131.914 204.111 121.555C200.804 119.309 185.641 110.76 185.641 110.76L183.145 155.376C183.145 155.376 204.985 181.21 206.233 192.317C207.481 203.424 200.991 223.08 205.234 230.443C212.722 243.61 208.292 236.995 217.215 249.974L254.281 237.37Z" fill="white"/>
<path d="M217.278 250.536C217.09 250.536 216.966 250.474 216.903 250.349L215.156 247.791C210.726 241.363 210.726 241.363 209.166 238.431C208.417 236.995 207.231 234.811 204.923 230.755C202.427 226.325 203.55 218.026 204.735 209.29C205.546 203.299 206.42 197.059 205.859 192.442C204.673 181.647 183.082 156.063 182.895 155.751C182.833 155.626 182.771 155.501 182.771 155.376L185.267 110.823C185.267 110.635 185.391 110.511 185.516 110.448C185.641 110.386 185.828 110.386 186.015 110.448C186.639 110.823 201.241 118.997 204.486 121.243C218.401 130.791 235.436 148.263 239.742 161.803C243.798 174.533 248.665 211.911 248.977 219.274C249.289 226.138 254.718 237.12 254.78 237.245C254.842 237.37 254.842 237.495 254.78 237.619C254.718 237.744 254.593 237.869 254.468 237.869L217.465 250.536C217.403 250.536 217.34 250.536 217.278 250.536ZM183.707 155.251C185.641 157.56 205.547 181.522 206.795 192.317C207.294 197.059 206.483 203.299 205.609 209.415C204.486 217.651 203.362 226.138 205.671 230.319C207.98 234.375 209.166 236.559 209.915 237.994C211.475 240.864 211.475 240.864 215.843 247.291L217.403 249.538L253.532 237.12C252.409 234.874 248.166 225.576 247.916 219.274C247.604 212.16 242.612 174.471 238.681 162.115C234.937 150.384 219.961 133.162 203.799 122.055C200.991 120.12 189.073 113.381 186.078 111.696L183.707 155.251Z" fill="#060B13"/>
<path d="M58.7188 237.37C58.7188 237.37 64.2723 226.262 64.5843 219.211C64.8963 212.16 69.8259 174.533 73.8195 161.866C77.8131 149.198 93.7875 131.914 108.888 121.555C112.196 119.309 127.359 110.76 127.359 110.76L129.792 155.376C129.792 155.376 107.952 181.21 106.704 192.317C105.456 203.424 111.946 223.08 107.703 230.443C100.215 243.61 104.645 236.995 95.722 249.974L58.7188 237.37Z" fill="white"/>
<path d="M95.7222 250.536C95.6598 250.536 95.5973 250.536 95.5973 250.536L58.5942 237.806C58.4694 237.744 58.3446 237.682 58.2822 237.557C58.2198 237.432 58.2198 237.307 58.2822 237.182C58.3446 237.058 63.7734 226.138 64.0854 219.211C64.3974 211.848 69.327 174.47 73.3205 161.741C77.6262 148.2 94.6613 130.728 108.577 121.181C111.821 118.934 126.423 110.76 127.047 110.386C127.172 110.323 127.359 110.323 127.546 110.386C127.671 110.448 127.796 110.635 127.796 110.76L130.292 155.314C130.292 155.438 130.229 155.563 130.167 155.688C129.98 155.938 108.389 181.522 107.204 192.317C106.705 196.934 107.516 203.112 108.327 209.165C109.513 217.963 110.636 226.2 108.14 230.63C105.831 234.686 104.645 236.87 103.897 238.306C102.337 241.238 102.337 241.238 97.9062 247.666L96.159 250.224C96.0342 250.411 95.9094 250.536 95.7222 250.536ZM59.4054 237.058L95.535 249.475L97.095 247.229C101.463 240.864 101.463 240.864 103.085 237.931C103.834 236.496 105.02 234.312 107.329 230.256C109.7 226.138 108.514 217.589 107.391 209.352C106.58 203.299 105.706 196.997 106.205 192.254C107.391 181.459 127.297 157.56 129.293 155.189L126.86 111.571C123.865 113.256 111.946 119.995 109.138 121.93C92.9766 133.037 78.0005 150.259 74.2565 161.99C70.3253 174.346 65.3334 212.098 65.0214 219.149C64.7718 225.576 60.5286 234.811 59.4054 237.058Z" fill="#060B13"/>
<path d="M104.645 265.637C105.144 263.453 105.456 261.206 105.519 258.96C105.519 256.152 102.586 252.034 102.586 252.034L104.396 242.923C104.396 242.923 58.4693 225.014 56.5973 227.448C54.7253 229.882 51.0437 242.986 51.0437 242.986C51.0437 242.986 45.1781 246.48 43.3685 250.099C42.3077 252.158 40.4357 259.709 39.0005 265.699L104.645 265.637Z" fill="#00ADEF"/>
<path d="M97.8436 256.09C97.7812 256.09 97.7188 256.09 97.7188 256.09L55.9108 243.423C55.6612 243.36 55.474 243.111 55.5988 242.799C55.6612 242.549 55.9732 242.362 56.2228 242.487L98.0308 255.154C98.2804 255.216 98.4052 255.528 98.3428 255.778C98.218 255.965 98.0932 256.09 97.8436 256.09Z" fill="#060B13"/>
<path d="M208.354 265.637H273.999C272.626 259.646 270.692 252.096 269.631 250.037C267.759 246.418 261.956 242.923 261.956 242.923C261.956 242.923 258.274 229.944 256.402 227.448C254.53 224.952 208.604 242.923 208.604 242.923L210.413 252.034C210.413 252.034 207.543 256.09 207.48 258.96C207.605 261.269 207.855 263.453 208.354 265.637Z" fill="#00ADEF"/>
<path d="M254.28 244.234L216.591 255.653L254.28 244.234Z" fill="white"/>
<path d="M216.529 256.09C216.279 256.09 216.029 255.84 216.029 255.59C216.029 255.403 216.154 255.216 216.341 255.154L254.031 243.734C254.28 243.672 254.592 243.797 254.655 244.046C254.717 244.296 254.592 244.608 254.343 244.67L216.653 256.09C216.653 256.09 216.591 256.09 216.529 256.09Z" fill="#060B13"/>
<path d="M121.244 46.8H191.756C194.626 46.8 196.935 49.1089 196.935 51.9793V202.738C196.935 205.608 194.626 207.917 191.756 207.917H121.244C118.373 207.917 116.064 205.608 116.064 202.738V51.9793C116.064 49.1089 118.373 46.8 121.244 46.8Z" fill="white"/>
<path d="M191.756 208.416H121.244C118.124 208.416 115.628 205.92 115.628 202.8V51.9793C115.628 48.8593 118.124 46.3633 121.244 46.3633H191.756C194.876 46.3633 197.372 48.8593 197.372 51.9793V202.738C197.372 205.858 194.876 208.416 191.756 208.416ZM121.244 47.2993C118.686 47.2993 116.564 49.3585 116.564 51.9793V202.738C116.564 205.296 118.623 207.418 121.244 207.418H191.756C194.314 207.418 196.436 205.296 196.436 202.738V51.9793C196.436 49.4209 194.377 47.2993 191.756 47.2993H121.244Z" fill="#060B13"/>
<path d="M192.692 61.4016H120.37V185.39H192.692V61.4016Z" fill="white"/>
<path d="M192.692 185.89H120.37C120.121 185.89 119.871 185.703 119.871 185.391V61.4018C119.871 61.1522 120.058 60.9026 120.37 60.9026H192.692C192.941 60.9026 193.191 61.0898 193.191 61.4018V185.391C193.191 185.64 192.941 185.89 192.692 185.89ZM120.869 184.891H192.193V61.901H120.807L120.869 184.891Z" fill="#060B13"/>
<path d="M149.637 191.381H163.365C165.112 191.381 166.547 192.816 166.547 194.563V199.805C166.547 201.552 165.112 202.987 163.365 202.987H149.637C147.889 202.987 146.454 201.552 146.454 199.805V194.563C146.454 192.816 147.889 191.381 149.637 191.381Z" fill="white"/>
<path d="M163.364 203.486H149.636C147.639 203.486 145.954 201.864 145.954 199.805V194.563C145.954 192.566 147.576 190.882 149.636 190.882H163.364C165.36 190.882 167.045 192.504 167.045 194.563V199.805C167.045 201.864 165.36 203.486 163.364 203.486ZM149.636 191.88C148.138 191.88 146.952 193.066 146.952 194.563V199.805C146.952 201.302 148.138 202.488 149.636 202.488H163.364C164.861 202.488 166.047 201.302 166.047 199.805V194.563C166.047 193.066 164.861 191.88 163.364 191.88H149.636Z" fill="#D9D9D9"/>
<path d="M163.801 54.2882H143.209C142.96 54.2882 142.71 54.0386 142.71 53.789C142.71 53.5394 142.897 53.2898 143.209 53.2898H163.801C164.051 53.2898 164.3 53.477 164.3 53.789C164.3 54.0386 164.051 54.2882 163.801 54.2882Z" fill="#D9D9D9"/>
<path d="M169.479 54.2882H166.734C166.484 54.2882 166.234 54.0386 166.234 53.789C166.234 53.5394 166.422 53.2898 166.734 53.2898H169.479C169.729 53.2898 169.978 53.5394 169.978 53.789C169.916 54.101 169.729 54.2882 169.479 54.2882Z" fill="#D9D9D9"/>
<path d="M192.692 68.8898H120.37C120.121 68.8898 119.871 68.7026 119.871 68.3906C119.871 68.141 120.058 67.8914 120.37 67.8914H192.692C192.941 67.8914 193.191 68.0786 193.191 68.3906C193.191 68.6402 192.941 68.8898 192.692 68.8898Z" fill="#060B13"/>
<path d="M189.509 73.8816H185.516H185.329H156.375C155.314 73.8816 154.503 74.6928 154.503 75.7536V83.0544C154.503 84.1152 155.314 84.9264 156.375 84.9264H185.329C186.389 84.9264 187.201 84.1152 187.201 83.0544V76.1904L189.509 73.8816Z" fill="#D9D9D9"/>
<path d="M127.546 110.136H131.539H131.727H160.68C161.741 110.136 162.552 110.947 162.552 112.008V123.365C162.552 124.426 161.741 125.237 160.68 125.237H131.727C130.666 125.237 129.855 124.426 129.855 123.365V112.382L127.546 110.136Z" fill="#D9D9D9"/>
<path d="M127.546 146.827H131.539C131.602 146.827 131.664 146.827 131.727 146.827H165.859C166.92 146.827 167.731 147.639 167.731 148.699V164.487C167.731 165.547 166.92 166.359 165.859 166.359H131.727C130.666 166.359 129.855 165.547 129.855 164.487V149.136L127.546 146.827Z" fill="#D9D9D9"/>
<path d="M189.509 129.917H185.516H185.329H156.375C155.314 129.917 154.503 130.728 154.503 131.789V139.09C154.503 140.151 155.314 140.962 156.375 140.962H185.329C186.389 140.962 187.201 140.151 187.201 139.09V132.226L189.509 129.917Z" fill="#D9D9D9"/>
<path d="M149.012 87.4849H184.58C186.015 87.4849 187.138 88.6081 187.138 90.0433V102.086C187.138 103.522 186.015 104.645 184.58 104.645H149.012C147.577 104.645 146.454 103.522 146.454 102.086V90.0433C146.391 88.6705 147.577 87.4849 149.012 87.4849Z" fill="#D9D9D9"/>
<path d="M128.482 172.661H184.579C186.826 172.661 188.635 174.47 188.635 176.717C188.635 178.963 186.826 180.773 184.579 180.773H128.482C126.235 180.773 124.426 178.963 124.426 176.717C124.426 174.47 126.235 172.661 128.482 172.661Z" fill="white"/>
<path d="M184.518 181.272H128.42C125.924 181.21 123.928 179.088 124.052 176.53C124.115 174.158 126.049 172.224 128.42 172.162H184.518C187.014 172.224 189.011 174.346 188.886 176.904C188.824 179.275 186.889 181.147 184.518 181.272ZM128.483 173.16C126.486 173.16 124.926 174.782 124.926 176.717C124.926 178.651 126.548 180.274 128.483 180.274H184.58C186.577 180.274 188.137 178.651 188.137 176.717C188.137 174.782 186.515 173.16 184.58 173.16H128.483Z" fill="#D9D9D9"/>
<path d="M100.59 242.986C100.59 242.986 116.565 229.819 117.813 214.781C119.061 199.742 116.565 184.08 118.437 180.71C120.309 177.341 133.163 158.87 135.971 153.941C139.653 147.451 134.099 141.648 130.105 144.082C126.112 146.515 110.387 155.438 102.088 167.482C102.088 167.482 97.1581 172.723 92.8525 181.958" fill="white"/>
<path d="M100.589 243.422C100.34 243.422 100.09 243.173 100.09 242.923C100.09 242.798 100.153 242.674 100.277 242.549C100.465 242.424 116.127 229.32 117.313 214.656C117.937 207.355 117.625 199.805 117.375 193.752C117.125 187.075 116.938 182.27 117.937 180.398C118.81 178.776 122.305 173.597 125.924 168.168C129.917 162.24 133.973 156.187 135.471 153.629C137.468 150.134 136.594 146.89 134.847 145.142C133.474 143.832 131.727 143.52 130.292 144.394L129.231 145.018C123.989 148.2 110.074 156.562 102.461 167.606C102.337 167.731 97.4695 172.973 93.2887 182.021C93.1639 182.27 92.9143 182.333 92.6647 182.27C92.4151 182.146 92.3527 181.896 92.4151 181.646C96.7207 172.474 101.713 167.107 101.713 167.045C109.45 155.875 123.49 147.451 128.732 144.206L129.793 143.582C131.602 142.459 133.849 142.834 135.533 144.456C137.53 146.39 138.591 150.134 136.345 154.066C134.847 156.624 130.791 162.739 126.797 168.667C123.178 174.096 119.684 179.213 118.81 180.835C117.937 182.458 118.124 187.387 118.373 193.69C118.623 199.742 118.873 207.355 118.311 214.718C117.063 229.819 101.089 243.173 100.901 243.298C100.839 243.422 100.714 243.485 100.589 243.422Z" fill="#060B13"/>
<path d="M212.41 242.986C212.41 242.986 196.436 229.819 195.188 214.781C193.94 199.742 196.436 184.08 194.564 180.71C192.692 177.341 179.837 158.87 177.029 153.941C173.348 147.451 178.901 141.648 182.895 144.082C186.888 146.515 202.613 155.438 210.912 167.482C210.912 167.482 215.842 172.723 220.148 181.958" fill="white"/>
<path d="M212.41 243.422C212.285 243.422 212.161 243.36 212.098 243.298C211.911 243.173 195.937 229.819 194.689 214.718C194.065 207.355 194.377 199.742 194.626 193.69C194.876 187.387 195.063 182.458 194.189 180.835C193.316 179.213 189.884 174.096 186.202 168.667C182.209 162.739 178.09 156.624 176.655 154.066C174.409 150.134 175.407 146.39 177.466 144.456C179.151 142.834 181.397 142.459 183.207 143.582L184.268 144.206C189.572 147.389 203.612 155.875 211.349 167.107C211.349 167.107 216.341 172.411 220.647 181.646C220.772 181.896 220.647 182.146 220.397 182.27C220.148 182.395 219.898 182.27 219.773 182.021C215.53 172.973 210.663 167.731 210.663 167.669C202.988 156.562 189.073 148.2 183.831 145.018L182.77 144.394C181.335 143.52 179.588 143.77 178.215 145.142C176.468 146.827 175.594 150.134 177.591 153.629C179.026 156.187 183.145 162.24 187.138 168.168C190.82 173.597 194.252 178.714 195.125 180.398C196.124 182.27 195.937 187.075 195.687 193.752C195.437 199.805 195.188 207.355 195.749 214.656C196.935 229.32 212.597 242.424 212.785 242.549C212.972 242.736 213.034 243.048 212.847 243.235C212.722 243.36 212.597 243.422 212.41 243.422Z" fill="#060B13"/>
<path d="M61.8393 71.8225H126.298C130.354 71.8225 133.599 75.1297 133.599 79.1233V108.576C133.599 112.632 130.292 115.877 126.298 115.877H61.8393C57.7833 115.877 54.5385 112.57 54.5385 108.576V79.1233C54.4761 75.0673 57.7833 71.8225 61.8393 71.8225Z" fill="#00ADEF"/>
<path d="M74.9427 105.893C82.559 105.893 88.7331 99.7186 88.7331 92.1024C88.7331 84.4862 82.559 78.312 74.9427 78.312C67.3265 78.312 61.1523 84.4862 61.1523 92.1024C61.1523 99.7186 67.3265 105.893 74.9427 105.893Z" fill="white"/>
<path d="M69.2649 84.7394C69.0777 86.6114 69.3273 88.5458 69.9513 90.3554C70.0761 90.8546 70.3881 91.3538 70.7625 91.7906C71.2617 92.165 71.8233 92.4146 72.4473 92.5394C73.4457 92.7266 74.4441 92.8514 75.4425 92.8514C76.5033 92.9762 77.5641 92.6642 78.4377 92.0402C79.4361 91.229 79.3113 90.1682 79.7481 89.1074C80.0601 88.2962 80.9961 87.9842 81.3081 87.1106C81.4329 86.6114 81.4953 86.1122 81.4329 85.6754C81.3081 84.365 80.7465 83.117 79.8729 82.1186C78.7497 80.933 77.0025 80.5586 75.4425 80.4962C73.8825 80.4338 72.2601 80.1217 72.1353 81.9937C71.5737 81.8689 71.0121 81.9313 70.5129 82.3057C69.7641 82.8673 69.3273 83.8034 69.2649 84.7394Z" fill="white"/>
<path d="M75.5046 93.2881H75.3798C74.319 93.2881 73.2582 93.1633 72.2598 92.9761C71.5734 92.9137 70.887 92.6017 70.3254 92.1025C69.8886 91.6657 69.5766 91.1041 69.3894 90.4801C68.7654 88.6081 68.5158 86.6113 68.6406 84.6145C68.703 83.5537 69.2022 82.4929 70.0134 81.8065C70.4502 81.4945 70.9494 81.3073 71.511 81.3073C71.9478 79.7473 73.4454 79.8097 74.631 79.8721H75.255C77.3142 79.8721 78.999 80.4961 80.0598 81.6193C80.9958 82.6801 81.6198 84.0529 81.7446 85.4881C81.807 86.0497 81.807 86.6113 81.6198 87.1729C81.4326 87.6721 81.0582 88.1089 80.6838 88.4209C80.4342 88.6081 80.1846 88.8577 80.0598 89.1697C79.935 89.4817 79.8726 89.7937 79.7478 90.1681C79.623 91.0417 79.1862 91.7905 78.5622 92.3521C77.751 93.0385 76.6278 93.3505 75.5046 93.2881ZM69.7638 84.8017C69.5766 86.6113 69.8262 88.4209 70.4502 90.1681C70.575 90.6049 70.7622 91.0417 71.0742 91.3537C71.4486 91.7281 71.9478 91.9153 72.5094 91.9777C73.4454 92.1649 74.4438 92.2273 75.4422 92.2897C76.3782 92.3521 77.3142 92.1025 78.063 91.6033C78.4998 91.1665 78.8118 90.6049 78.8742 89.9809C78.9366 89.6065 79.0614 89.2321 79.1862 88.8577C79.3734 88.4209 79.6854 88.0465 80.0598 87.7345C80.3718 87.4849 80.6214 87.2353 80.7462 86.8609C80.871 86.4865 80.871 86.0497 80.8086 85.6129C80.6838 84.4273 80.247 83.2417 79.4358 82.3057C78.3126 81.0577 76.3782 80.8705 75.3798 80.8705C75.1926 80.8705 74.943 80.8705 74.7558 80.8705C73.2582 80.8081 72.6966 80.8705 72.5718 81.9313C72.5718 82.1809 72.3222 82.4305 72.0102 82.3681H71.9478C71.5734 82.2433 71.1366 82.3681 70.8246 82.6177C70.2006 83.2417 69.8262 84.0529 69.7638 84.8017Z" fill="#060B13"/>
<path d="M73.9454 109.575L72.011 95.2225L78.875 96.1585L81.2462 109.575L87.1118 109.075C86.9246 102.149 84.4286 96.2833 82.619 94.9729C80.435 93.3505 72.1358 93.6625 72.1358 93.6625C72.1358 93.6625 65.5214 96.4705 63.8366 99.6529C63.0878 101.026 62.651 104.895 62.8382 109.699L73.9454 109.575Z" fill="#00ADEF"/>
<path d="M78.8746 92.1024L79.561 95.8464C79.561 95.8464 78.6874 98.28 76.1914 97.968C74.6938 97.7808 73.3834 96.9072 72.6346 95.5968L71.9482 88.7952C71.9482 88.7952 73.633 87.672 72.697 83.8032C74.7562 84.4272 76.9402 84.4896 79.0618 83.9904C79.0618 83.9904 80.6218 88.1088 80.497 89.9808C80.497 90.9792 79.8106 91.9152 78.8746 92.1024Z" fill="white"/>
<path d="M76.5649 98.4672C76.3777 98.4672 76.2529 98.4672 76.0657 98.4672C74.4433 98.2176 72.9457 97.2816 72.1345 95.8464C72.1345 95.784 72.0721 95.7216 72.0721 95.6592L71.3857 88.8576C71.3857 88.6704 71.4481 88.4832 71.5729 88.3584C71.6353 88.296 72.9457 87.2976 72.1345 83.928C72.0721 83.7408 72.1345 83.5536 72.2593 83.4288C72.3841 83.304 72.5713 83.2416 72.7585 83.304C74.7553 83.928 76.8145 83.9904 78.8737 83.4912C79.1233 83.4288 79.3729 83.5536 79.4353 83.8032C79.4977 83.9904 80.9953 88.0464 80.9329 90.0432C80.9329 91.104 80.3713 92.04 79.3729 92.4768L79.9969 95.784C79.9969 95.8464 79.9969 95.9712 79.9969 96.0336C79.4977 97.5312 78.1249 98.4672 76.5649 98.4672ZM73.0705 95.4096C73.7569 96.5328 74.8801 97.2192 76.1905 97.4064C77.3761 97.5312 78.4993 96.8448 78.9361 95.7216L78.3121 92.1648C78.3121 92.04 78.3121 91.9152 78.3745 91.7904C78.4369 91.6656 78.5617 91.6032 78.6865 91.6032C79.4353 91.416 79.9345 90.7296 79.8721 89.9808C79.9345 88.5456 78.9985 85.6752 78.6241 84.6144C76.8145 84.9888 75.0049 84.9264 73.2577 84.552C73.6945 87.2352 72.8209 88.5456 72.3841 89.0448L73.0705 95.4096Z" fill="#060B13"/>
<path d="M76.1286 86.6113C76.1286 86.6113 77.5014 88.6081 77.1894 88.9825C76.8774 89.3569 75.9414 89.1073 75.9414 89.1073" fill="white"/>
<path d="M76.5036 89.6688C76.254 89.6688 76.0044 89.6064 75.8172 89.6064C75.5676 89.544 75.3804 89.2944 75.4428 89.0448C75.5052 88.7952 75.7548 88.608 76.0044 88.6704C76.1916 88.7328 76.4412 88.7328 76.6284 88.7328C76.3788 88.1088 76.0668 87.4848 75.63 86.9232C75.5052 86.6736 75.5676 86.424 75.7548 86.2368C76.0044 86.112 76.254 86.1744 76.4412 86.3616C78.0012 88.6704 77.6268 89.1072 77.4396 89.2944C77.2524 89.544 76.878 89.6688 76.5036 89.6688Z" fill="#060B13"/>
<path d="M74.8328 86.7959C74.9706 86.7916 75.0746 86.5369 75.065 86.2269C75.0555 85.9169 74.9361 85.669 74.7983 85.6732C74.6605 85.6775 74.5566 85.9322 74.5661 86.2422C74.5756 86.5522 74.695 86.8001 74.8328 86.7959Z" fill="#060B13"/>
<path d="M77.9529 86.6096C78.0907 86.6054 78.1947 86.3506 78.1851 86.0406C78.1756 85.7306 78.0562 85.4827 77.9184 85.487C77.7806 85.4912 77.6767 85.7459 77.6862 86.0559C77.6957 86.366 77.8151 86.6138 77.9529 86.6096Z" fill="#060B13"/>
<path d="M73.3206 87.6096C73.071 87.2352 72.759 86.9856 72.3846 86.736C72.1974 86.6112 72.0102 86.5488 71.7606 86.5488C71.5734 86.5488 71.3862 86.6112 71.2614 86.736C70.8246 87.048 70.5126 87.6096 70.4502 88.1088C70.4502 88.3584 70.4502 88.608 70.575 88.8576C70.7622 89.232 71.0742 89.544 71.3862 89.6688C71.7606 89.856 72.135 89.9808 72.5094 90.0432" fill="white"/>
<path d="M72.5096 90.6049H72.3848C71.948 90.5425 71.5112 90.3553 71.1368 90.1681C70.6376 89.9185 70.2632 89.5441 70.076 89.0449C69.9512 88.7329 69.8888 88.3585 69.9512 88.0465C70.0136 87.3601 70.388 86.6737 70.9496 86.2993C71.1992 86.1121 71.4488 85.9873 71.6984 85.9873C72.0104 85.9873 72.3848 86.0497 72.6344 86.2993C73.0712 86.5489 73.4456 86.9233 73.6952 87.2977C73.8824 87.5473 73.82 87.7969 73.5704 87.9841C73.3208 88.1713 73.0088 88.1089 72.884 87.8593C72.6968 87.5473 72.3848 87.2977 72.1352 87.1105C72.0104 87.0481 71.8856 86.9857 71.7608 86.9857C71.636 86.9857 71.5736 87.0481 71.5112 87.1105C71.1368 87.3601 70.9496 87.7345 70.8872 88.1713C70.8872 88.3585 70.8872 88.5457 70.9496 88.6705C71.0744 88.9201 71.324 89.1073 71.5736 89.2321C71.8856 89.3569 72.26 89.4817 72.6344 89.5441C72.884 89.6065 73.0712 89.8561 73.0088 90.1057C73.0088 90.1057 73.0088 90.1057 73.0088 90.1681C72.9464 90.4801 72.7592 90.6049 72.5096 90.6049Z" fill="#060B13"/>
<path d="M78.3756 90.1682L75.0684 90.4802C75.3804 90.9794 76.0044 91.3538 76.6284 91.3538C77.5644 91.3538 78.3756 90.1682 78.3756 90.1682Z" fill="#060B13"/>
<path d="M125.861 85.9249H93.7872C93.5376 85.9249 93.288 85.7377 93.2256 85.4881C93.2256 85.2385 93.4128 84.9889 93.6624 84.9265C93.7248 84.9265 93.7248 84.9265 93.7872 84.9265H125.861C126.11 84.9265 126.298 85.1761 126.298 85.4881C126.235 85.6753 126.048 85.8625 125.861 85.9249Z" fill="white"/>
<path d="M125.862 94.349H93.7883C93.5387 94.349 93.2891 94.1618 93.2891 93.8498C93.2891 93.6002 93.4763 93.3506 93.7883 93.3506H125.862C126.111 93.3506 126.361 93.5378 126.361 93.8498C126.299 94.1618 126.111 94.349 125.862 94.349Z" fill="white"/>
<path d="M118.187 102.835H93.7883C93.5387 102.835 93.2891 102.648 93.2891 102.336C93.2891 102.087 93.4763 101.837 93.7883 101.837H118.187C118.436 101.837 118.686 102.087 118.686 102.336C118.623 102.586 118.436 102.835 118.187 102.835Z" fill="white"/>
<path d="M126.298 115.939C126.298 115.939 141.399 116.189 141.149 115.939C140.899 115.69 129.231 105.144 129.231 105.144L126.298 115.939Z" fill="#00ADEF"/>
<path d="M249.975 97.1568H185.516C181.46 97.1568 178.215 93.8496 178.215 89.856V60.3408C178.215 56.2848 181.522 53.04 185.516 53.04H249.975C254.031 53.04 257.276 56.3472 257.276 60.3408V89.7936C257.276 93.8496 254.031 97.1568 249.975 97.1568Z" fill="#00ADEF"/>
<path d="M199.307 87.1103C206.923 87.1103 213.097 80.9362 213.097 73.3199C213.097 65.7037 206.923 59.5295 199.307 59.5295C191.691 59.5295 185.517 65.7037 185.517 73.3199C185.517 80.9362 191.691 87.1103 199.307 87.1103Z" fill="white"/>
<path d="M250.163 67.0799H218.089C217.84 67.0799 217.652 66.8303 217.652 66.5183C217.652 66.2687 217.84 66.0815 218.089 66.0815H250.163C250.412 66.0815 250.6 66.3311 250.6 66.6431C250.6 66.8927 250.412 67.0799 250.163 67.0799Z" fill="white"/>
<path d="M250.163 75.5665H218.089C217.84 75.5665 217.652 75.3169 217.652 75.0049C217.652 74.7553 217.84 74.5681 218.089 74.5681H250.163C250.412 74.5681 250.6 74.8177 250.6 75.1297C250.6 75.3169 250.412 75.5041 250.163 75.5665Z" fill="white"/>
<path d="M242.487 83.9903H218.089C217.839 83.9903 217.59 83.8031 217.59 83.4911C217.59 83.2415 217.777 82.9919 218.089 82.9919H242.487C242.737 82.9919 242.987 83.1791 242.987 83.4911C242.987 83.8031 242.737 83.9903 242.487 83.9903Z" fill="white"/>
<path d="M185.516 97.1568C185.516 97.1568 170.416 97.4064 170.665 97.1568C170.915 96.9072 182.584 86.3616 182.584 86.3616L185.516 97.1568Z" fill="#00ADEF"/>
<path d="M196.623 61.9009H196.998C197.559 62.0257 198.121 62.2129 198.682 62.4625C199.556 61.8385 200.742 61.9633 201.802 62.3377C205.047 63.5233 210.663 70.5745 207.481 74.0065C206.732 74.6929 205.796 75.0673 204.798 75.1297C202.052 75.5665 199.306 75.7537 196.561 75.5665C195.562 75.5665 194.564 75.3793 193.69 74.9425C191.007 73.4449 192.567 67.6417 193.628 65.3953C194.065 64.3345 194.689 63.3985 195.375 62.4625C195.625 62.1505 196.124 61.9633 196.623 61.9009Z" fill="white"/>
<path d="M198.745 76.0657C197.996 76.0657 197.247 76.0657 196.499 76.0033C195.438 76.0033 194.377 75.7537 193.379 75.3169C190.383 73.6945 191.881 67.8289 193.129 65.2081C193.566 64.0849 194.19 63.0865 195.001 62.1505C195.438 61.7761 195.999 61.5265 196.561 61.4641C196.686 61.4641 196.873 61.4641 196.998 61.4641C197.559 61.5889 198.121 61.7137 198.683 61.9633C199.743 61.5265 200.929 61.4641 201.927 61.9009C204.299 62.7745 207.793 66.4561 208.667 69.9505C209.103 71.6977 208.791 73.2577 207.793 74.3185C206.982 75.0673 205.983 75.5041 204.86 75.5665C202.801 75.9409 200.804 76.0657 198.745 76.0657ZM196.686 62.3377C196.311 62.3377 195.937 62.5249 195.625 62.7745C194.939 63.5857 194.377 64.5217 193.94 65.5201C192.755 68.0161 191.569 73.2577 193.815 74.5057C194.689 74.8801 195.563 75.1297 196.561 75.1297C199.307 75.3169 201.99 75.1297 204.735 74.6929C205.609 74.6305 206.483 74.2561 207.169 73.6945C207.98 72.8209 208.167 71.6353 207.793 70.1377C206.982 66.9553 203.799 63.5233 201.615 62.7121C201.116 62.5249 199.806 62.1505 198.932 62.7745C198.745 62.8993 198.558 62.8993 198.371 62.7745C197.934 62.5873 197.435 62.4625 196.935 62.3377H196.686Z" fill="#060B13"/>
<path d="M194.565 87.9216C194.939 83.616 195.251 78.1248 195.251 78.0624L201.304 78.312L200.867 87.9216L212.536 85.8C211.6 83.6784 210.414 81.6816 208.979 79.8096C206.234 76.128 200.306 76.128 200.118 76.128C200.243 76.128 202.989 76.128 195.251 75.6912C186.89 75.192 184.394 85.176 184.394 85.176L185.579 85.8L194.565 87.9216Z" fill="#00ADEF"/>
<path d="M196.124 74.6305L195.438 78.3745C195.438 78.3745 195.375 80.5585 197.809 80.3713C199.244 80.2465 200.555 79.4977 201.428 78.3121L202.177 73.6945C202.551 71.9473 202.863 70.2001 203.051 68.4529C201.241 69.0145 198.995 66.7681 198.433 65.2705C198.121 66.2065 198.371 67.2049 198.995 67.9537C197.996 67.5793 197.185 66.7681 196.873 65.7073C196.311 66.1441 195.812 66.5809 195.375 67.0801C195.001 67.6417 194.689 68.2657 194.439 68.9521C194.065 70.1377 193.815 71.8849 194.377 73.0081C194.689 73.6945 195.313 74.3185 196.124 74.6305Z" fill="white"/>
<path d="M197.56 80.8079C196.873 80.8703 196.249 80.6207 195.75 80.1839C195.251 79.6847 195.001 79.0607 195.001 78.3743C195.001 78.3119 195.438 75.8159 195.625 74.8799C194.877 74.4431 194.315 73.8191 193.941 73.0703C193.192 71.6351 193.691 69.5135 194.003 68.7023C194.19 68.0159 194.565 67.3295 195.001 66.7055C195.001 66.7055 196.437 65.0831 196.936 65.1455C197.123 65.2079 197.248 65.2703 197.31 65.4575C197.435 65.8943 197.622 66.2687 197.934 66.5807C197.809 66.0815 197.872 65.5199 197.997 65.0207C198.059 64.7711 198.371 64.6463 198.558 64.7711C198.683 64.8335 198.808 64.8959 198.808 65.0207C199.307 66.3311 201.366 68.4527 202.864 67.9535C202.989 67.8911 203.176 67.9535 203.301 68.0159C203.425 68.0783 203.488 68.2655 203.488 68.3903C203.363 69.6383 203.238 70.8239 202.926 72.0719C202.801 72.6335 202.739 73.1951 202.614 73.6943L201.865 78.3119C201.865 78.3743 201.865 78.4367 201.803 78.4991C200.929 79.8095 199.432 80.6831 197.872 80.8079H197.56ZM195.875 78.4367C195.937 78.8735 196.062 79.2479 196.374 79.5599C196.749 79.8719 197.31 79.9967 197.809 79.9343C199.12 79.8095 200.243 79.1855 200.992 78.1247L201.741 73.5695C201.803 73.0079 201.928 72.4463 202.053 71.8847C202.24 70.8863 202.427 69.8879 202.552 68.8895C201.179 68.9519 199.744 67.8911 198.87 66.7679C198.995 67.0799 199.12 67.3295 199.307 67.5791C199.494 67.7663 199.432 68.0159 199.307 68.2031C199.182 68.3279 198.995 68.3279 198.87 68.2655C197.934 67.9535 197.123 67.2671 196.686 66.3311C196.312 66.6431 195.813 67.1423 195.75 67.2047C195.376 67.7039 195.126 68.3279 194.939 68.8895C194.44 70.4495 194.44 71.8223 194.814 72.5711C195.126 73.2575 195.625 73.8191 196.312 74.0687C196.561 74.1311 196.686 74.3807 196.624 74.5679C196.561 74.7551 195.875 78.3119 195.875 78.4367Z" fill="#060B13"/>
<path d="M201.99 70.949C202.115 70.6994 202.302 70.4498 202.552 70.325C202.801 70.2002 203.051 70.1378 203.3 70.0754C203.425 70.013 203.612 70.013 203.737 70.0754C203.862 70.0754 203.924 70.1378 203.987 70.2002C204.174 70.325 204.361 70.5746 204.361 70.7618C204.361 70.949 204.361 71.1362 204.299 71.3234C204.236 71.5106 204.174 71.6978 204.049 71.885C203.8 72.2594 203.425 72.509 203.051 72.6338C202.614 72.7586 202.177 72.6338 201.803 72.3842" fill="white"/>
<path d="M202.739 73.1328C202.364 73.1328 201.99 73.008 201.616 72.8208C201.428 72.696 201.366 72.4464 201.491 72.2592C201.616 72.072 201.865 72.0096 201.99 72.1344C202.24 72.3216 202.614 72.384 202.926 72.3216C203.238 72.2592 203.55 72.072 203.737 71.76C203.862 71.6352 203.924 71.448 203.924 71.2608C203.987 71.136 203.987 71.0112 203.987 70.8864C203.924 70.7616 203.862 70.6368 203.737 70.512C203.675 70.4496 203.675 70.4496 203.612 70.4496C203.55 70.4496 203.425 70.4496 203.363 70.4496C203.176 70.512 202.926 70.5744 202.739 70.6368C202.552 70.7616 202.427 70.8864 202.364 71.0736C202.302 71.2608 202.052 71.3856 201.865 71.3232C201.678 71.2608 201.553 71.0112 201.616 70.824V70.7616C201.74 70.3872 201.99 70.1376 202.364 69.9504C202.614 69.8256 202.926 69.7008 203.238 69.6384C203.425 69.576 203.675 69.576 203.862 69.6384C203.987 69.7008 204.112 69.7632 204.236 69.8256C204.486 70.0128 204.736 70.3248 204.798 70.6368C204.86 70.8864 204.798 71.136 204.736 71.3856C204.673 71.6352 204.548 71.8848 204.424 72.072C204.112 72.5088 203.675 72.8208 203.176 72.9456C203.113 73.1328 202.926 73.1328 202.739 73.1328Z" fill="#060B13"/>
<path d="M197.248 69.0144C197.248 69.0144 195.688 70.5744 195.875 70.9488C196.062 71.3232 196.936 71.2608 196.936 71.2608" fill="white"/>
<path d="M196.811 71.6977C196.311 71.7601 195.812 71.5729 195.5 71.1985C195.375 71.0113 195.126 70.5121 196.935 68.7649C197.123 68.5777 197.372 68.5777 197.559 68.7649C197.747 68.9521 197.747 69.2017 197.559 69.3889C197.123 69.8257 196.686 70.2625 196.374 70.8241C196.561 70.8865 196.748 70.8865 196.998 70.8865C197.247 70.8865 197.435 71.0737 197.435 71.3233C197.435 71.5729 197.247 71.7601 197.06 71.7601H196.811V71.6977Z" fill="#060B13"/>
<path d="M199.538 69.6433C199.639 69.4243 199.594 69.1882 199.438 69.1159C199.281 69.0436 199.073 69.1625 198.971 69.3815C198.87 69.6005 198.915 69.8367 199.071 69.909C199.228 69.9812 199.437 69.8623 199.538 69.6433Z" fill="#060B13"/>
<path d="M196.243 69.0471C196.344 68.8281 196.299 68.592 196.143 68.5197C195.986 68.4474 195.778 68.5664 195.676 68.7854C195.575 69.0043 195.62 69.2405 195.776 69.3128C195.933 69.3851 196.142 69.2661 196.243 69.0471Z" fill="#060B13"/>
<path d="M195.563 71.9473L198.247 72.0721C198.247 72.7585 197.685 73.2577 197.061 73.2577C196.999 73.2577 196.874 73.2577 196.811 73.2577C196.125 73.2577 195.626 72.6961 195.563 71.9473Z" fill="#060B13"/>
</svg>
