<svg width="33" height="32" viewBox="0 0 33 32" fill="none" xmlns="http://www.w3.org/2000/svg">
<path d="M11.6475 1.0525C8.45019 2.16167 5.69285 4.26691 3.78046 7.059C1.86808 9.85109 0.901465 13.1829 1.02259 16.5649C1.14372 19.947 2.34621 23.201 4.45343 25.8492C6.56065 28.4973 9.46153 30.3999 12.73 31.2775C15.3798 31.9612 18.156 31.9913 20.82 31.365C23.2333 30.8229 25.4644 29.6634 27.295 28C29.2002 26.2159 30.5831 23.9462 31.295 21.435C32.0688 18.7042 32.2065 15.8323 31.6975 13.04H16.8175V19.2125H25.435C25.2628 20.197 24.8937 21.1366 24.3499 21.9751C23.806 22.8136 23.0986 23.5338 22.27 24.0925C21.2177 24.7886 20.0315 25.2569 18.7875 25.4675C17.5398 25.6995 16.2601 25.6995 15.0125 25.4675C13.748 25.2061 12.5517 24.6841 11.5 23.935C9.81036 22.739 8.54168 21.0398 7.87499 19.08C7.19702 17.0835 7.19702 14.919 7.87499 12.9225C8.34955 11.523 9.13407 10.2488 10.17 9.19499C11.3555 7.96686 12.8563 7.08899 14.5079 6.65769C16.1594 6.22638 17.8979 6.25832 19.5325 6.75C20.8094 7.14197 21.9771 7.82684 22.9425 8.75C23.9142 7.78333 24.8842 6.81416 25.8525 5.8425C26.3525 5.32 26.8975 4.82249 27.39 4.2875C25.9164 2.91619 24.1867 1.84914 22.3 1.1475C18.8642 -0.10003 15.1049 -0.133556 11.6475 1.0525Z" fill="white"/>
<path d="M11.6474 1.05249C15.1046 -0.134368 18.8639 -0.101725 22.2999 1.14499C24.187 1.8514 25.9159 2.92358 27.3874 4.29999C26.8874 4.83499 26.3599 5.33499 25.8499 5.85499C24.8799 6.82332 23.9108 7.78832 22.9424 8.74999C21.9771 7.82683 20.8094 7.14197 19.5324 6.74999C17.8984 6.25659 16.16 6.22281 14.508 6.65235C12.856 7.08188 11.3542 7.95814 10.1674 9.18499C9.13153 10.2388 8.34701 11.513 7.87244 12.9125L2.68994 8.89999C4.54496 5.22139 7.75681 2.40755 11.6474 1.05249Z" fill="#E33629"/>
<path d="M1.315 12.8749C1.59355 11.4944 2.05601 10.1575 2.69 8.8999L7.8725 12.9224C7.19453 14.9189 7.19453 17.0834 7.8725 19.0799C6.14583 20.4132 4.41833 21.7532 2.69 23.0999C1.10287 19.9407 0.618829 16.3412 1.315 12.8749Z" fill="#F8BD00"/>
<path d="M16.8175 13.0376H31.6975C32.2065 15.8299 32.0688 18.7018 31.295 21.4326C30.5831 23.9438 29.2002 26.2135 27.295 27.9976C25.6225 26.6926 23.9425 25.3976 22.27 24.0926C23.0992 23.5333 23.8069 22.8123 24.3508 21.9729C24.8946 21.1335 25.2634 20.193 25.435 19.2076H16.8175C16.815 17.1526 16.8175 15.0951 16.8175 13.0376Z" fill="#587DBD"/>
<path d="M2.6875 23.1001C4.41583 21.7667 6.14333 20.4267 7.87 19.0801C8.53802 21.0406 9.80851 22.7398 11.5 23.9351C12.555 24.6807 13.7538 25.1984 15.02 25.4551C16.2676 25.6871 17.5474 25.6871 18.795 25.4551C20.039 25.2445 21.2252 24.7762 22.2775 24.0801C23.95 25.3851 25.63 26.6801 27.3025 27.9851C25.4722 29.6494 23.241 30.8098 20.8275 31.3526C18.1635 31.9788 15.3873 31.9488 12.7375 31.2651C10.6418 30.7055 8.68419 29.7191 6.9875 28.3676C5.19165 26.9418 3.72489 25.145 2.6875 23.1001Z" fill="#319F43"/>
</svg>
