<svg width="134" height="89" viewBox="0 0 134 89" fill="none" xmlns="http://www.w3.org/2000/svg">
<rect width="134" height="89" fill="white"/>
<path d="M90.6655 75.0522V76.9234C90.6655 81.9109 92.3642 86.6809 92.3642 86.6809H93.6617V88.4247H25.0667C24.7967 88.4247 24.5567 88.2522 24.4705 87.9934C24.013 86.5834 22.6367 81.9184 22.6367 77.0772V74.9022C22.6367 70.0609 24.013 65.3959 24.4705 63.9859C24.553 63.7272 24.793 63.5547 25.0667 63.5547H93.6617V65.2984H92.3642C92.3642 65.2984 90.6655 70.0722 90.6655 75.0559V75.0522Z" fill="white"/>
<path d="M93.6619 88.7058H25.0669C24.6731 88.7058 24.3244 88.4545 24.2044 88.0795C23.7694 86.737 22.3594 81.9783 22.3594 77.077V74.902C22.3594 69.997 23.7731 65.2383 24.2044 63.8958C24.3244 63.5208 24.6731 63.2695 25.0669 63.2695H93.6619C93.8156 63.2695 93.9431 63.397 93.9431 63.5508V65.2945C93.9431 65.4483 93.8156 65.5758 93.6619 65.5758H92.5669C92.2594 66.502 90.9469 70.7245 90.9469 75.052V76.9233C90.9469 81.2545 92.2594 85.4733 92.5669 86.3995H93.6619C93.8156 86.3995 93.9431 86.527 93.9431 86.6808V88.4245C93.9431 88.5783 93.8156 88.7058 93.6619 88.7058ZM25.0669 63.832C24.9169 63.832 24.7856 63.9258 24.7406 64.0683C24.3131 65.3883 22.9219 70.0758 22.9219 74.8983V77.0733C22.9219 81.892 24.3131 86.5795 24.7406 87.9033C24.7856 88.0458 24.9169 88.1395 25.0669 88.1395H93.3806V86.9583H92.3644C92.2444 86.9583 92.1394 86.8833 92.0981 86.7708C92.0831 86.722 90.3844 81.8958 90.3844 76.9195V75.0483C90.3844 70.072 92.0831 65.242 92.0981 65.197C92.1394 65.0845 92.2444 65.0095 92.3644 65.0095H93.3806V63.8283H25.0669V63.832Z" fill="#221F20"/>
<path d="M130.4 75.0522V76.9234C130.4 81.9109 132.099 86.6809 132.099 86.6809H133.396V88.4247H84.3912C84.2487 88.4247 84.125 88.3347 84.08 88.2034C83.7162 87.1159 82.1787 82.1959 82.1787 77.0772V74.9022C82.1787 69.7834 83.7162 64.8634 84.08 63.7759C84.125 63.6409 84.2487 63.5547 84.3912 63.5547H133.396V65.2984H132.099C132.099 65.2984 130.4 70.0722 130.4 75.0559V75.0522Z" fill="white"/>
<path d="M133.396 88.7058H84.3912C84.1287 88.7058 83.8962 88.5408 83.8137 88.2895C83.495 87.3295 81.8975 82.2745 81.8975 77.077V74.902C81.8975 69.7008 83.495 64.6458 83.8137 63.6858C83.8962 63.4383 84.1287 63.2695 84.3912 63.2695H133.396C133.55 63.2695 133.677 63.397 133.677 63.5508V65.2945C133.677 65.4483 133.55 65.5758 133.396 65.5758H132.301C131.994 66.502 130.681 70.7245 130.681 75.052V76.9233C130.681 81.2545 131.994 85.4733 132.301 86.3995H133.396C133.55 86.3995 133.677 86.527 133.677 86.6808V88.4245C133.677 88.5783 133.55 88.7058 133.396 88.7058ZM84.3875 63.832C84.3687 63.832 84.35 63.8433 84.3425 63.862C84.0275 64.807 82.4562 69.7833 82.4562 74.902V77.077C82.4562 82.1883 84.0275 87.1683 84.3425 88.1133C84.35 88.132 84.365 88.1433 84.3875 88.1433H133.111V86.962H132.095C131.975 86.962 131.87 86.887 131.829 86.7745C131.814 86.7258 130.115 81.8995 130.115 76.9233V75.052C130.115 70.0758 131.814 65.2458 131.829 65.2008C131.87 65.0883 131.975 65.0133 132.095 65.0133H133.111V63.832H84.3875Z" fill="#221F20"/>
<path d="M130.401 76.9232C130.401 81.9107 132.1 86.6807 132.1 86.6807H86.6763C86.6763 86.6807 84.9775 81.9069 84.9775 76.9232V75.0519C84.9775 70.0644 86.6763 65.2944 86.6763 65.2944H132.1C132.1 65.2944 130.401 70.0682 130.401 75.0519V76.9232Z" fill="white"/>
<path d="M132.1 86.9619H86.6763C86.5563 86.9619 86.4513 86.8869 86.41 86.7744C86.395 86.7257 84.6963 81.8994 84.6963 76.9232V75.0519C84.6963 70.0757 86.395 65.2457 86.41 65.2007C86.4513 65.0882 86.5563 65.0132 86.6763 65.0132H132.1C132.19 65.0132 132.276 65.0582 132.329 65.1332C132.381 65.2082 132.396 65.3019 132.363 65.3882C132.348 65.4369 130.683 70.1732 130.683 75.0519V76.9232C130.683 81.8019 132.348 86.5419 132.363 86.5869C132.393 86.6732 132.381 86.7669 132.329 86.8419C132.276 86.9169 132.19 86.9619 132.1 86.9619ZM86.875 86.3994H131.706C131.313 85.1694 130.116 81.0969 130.116 76.9232V75.0519C130.116 70.8744 131.313 66.8057 131.706 65.5757H86.875C86.5675 66.5019 85.255 70.7244 85.255 75.0519V76.9232C85.255 81.2544 86.5675 85.4732 86.875 86.3994Z" fill="#221F20"/>
<path d="M74.1234 88.4213H35.9859C35.8472 88.4213 35.7197 88.335 35.6747 88.2C35.3147 87.1125 33.7734 82.1925 33.7734 77.0775V74.8988C33.7734 69.78 35.3109 64.86 35.6747 63.7725C35.7197 63.6375 35.8472 63.5513 35.9859 63.5513H74.1234C73.9847 63.5513 73.8572 63.6375 73.8122 63.7725C73.4522 64.86 71.9109 69.78 71.9109 74.8988V77.0775C71.9109 82.1925 73.4484 87.1125 73.8122 88.2C73.8572 88.335 73.9847 88.4213 74.1234 88.4213Z" fill="#00ADEF"/>
<path d="M74.1234 88.7019H35.9859C35.7234 88.7019 35.4909 88.5369 35.4084 88.2894C34.9584 86.9356 33.4922 82.1319 33.4922 77.0731V74.8944C33.4922 69.8356 34.9584 65.0319 35.4047 63.6781C35.4909 63.4306 35.7234 63.2656 35.9859 63.2656H74.1234C74.2772 63.2656 74.4047 63.3931 74.4047 63.5469C74.4047 63.7006 74.2772 63.8281 74.1234 63.8281C74.1009 63.8281 74.0822 63.8394 74.0784 63.8581C73.7634 64.8031 72.1922 69.7869 72.1922 74.8944V77.0731C72.1922 82.1769 73.7634 87.1606 74.0784 88.1094C74.0822 88.1244 74.1047 88.1394 74.1234 88.1394C74.2772 88.1394 74.4047 88.2669 74.4047 88.4206C74.4047 88.5744 74.2772 88.7019 74.1234 88.7019ZM35.9822 63.8319C35.9597 63.8319 35.9409 63.8431 35.9372 63.8619C35.4947 65.1894 34.0547 69.9219 34.0547 74.8981V77.0769C34.0547 82.1769 35.6259 87.1644 35.9409 88.1131C35.9447 88.1281 35.9634 88.1431 35.9859 88.1431H73.4972C72.9984 86.6131 71.6334 81.9669 71.6334 77.0806V74.9019C71.6334 70.0081 73.0022 65.3619 73.4972 63.8356H35.9859L35.9822 63.8319Z" fill="#221F20"/>
<path d="M127.622 68.5493H91.3262C91.1724 68.5493 91.0449 68.4218 91.0449 68.2681C91.0449 68.1143 91.1724 67.9868 91.3262 67.9868H127.622C127.776 67.9868 127.904 68.1143 127.904 68.2681C127.904 68.4218 127.776 68.5493 127.622 68.5493Z" fill="#221F20"/>
<path d="M130.719 71.3467H93.665C93.5113 71.3467 93.3838 71.2192 93.3838 71.0654C93.3838 70.9117 93.5113 70.7842 93.665 70.7842H130.719C130.873 70.7842 131 70.9117 131 71.0654C131 71.2192 130.873 71.3467 130.719 71.3467Z" fill="#221F20"/>
<path d="M125.935 74.6543H89.6387C89.4849 74.6543 89.3574 74.5268 89.3574 74.373C89.3574 74.2193 89.4849 74.0918 89.6387 74.0918H125.935C126.089 74.0918 126.216 74.2193 126.216 74.373C126.216 74.5268 126.089 74.6543 125.935 74.6543Z" fill="#221F20"/>
<path d="M129.956 78.4717H93.6602C93.5064 78.4717 93.3789 78.3442 93.3789 78.1904C93.3789 78.0367 93.5064 77.9092 93.6602 77.9092H129.956C130.11 77.9092 130.238 78.0367 130.238 78.1904C130.238 78.3442 130.11 78.4717 129.956 78.4717Z" fill="#221F20"/>
<path d="M88.3286 50.1782V52.0494C88.3286 57.0369 90.0273 61.8069 90.0273 61.8069H91.3248V63.5507H22.7298C22.4598 63.5507 22.2198 63.3782 22.1336 63.1194C21.6761 61.7094 20.2998 57.0444 20.2998 52.2032V50.0282C20.2998 45.1869 21.6761 40.5219 22.1336 39.1119C22.2161 38.8532 22.4561 38.6807 22.7298 38.6807H91.3248V40.4244H90.0273C90.0273 40.4244 88.3286 45.1982 88.3286 50.1819V50.1782Z" fill="white"/>
<path d="M91.324 63.8318H22.729C22.3352 63.8318 21.9865 63.5805 21.8665 63.2055C21.4315 61.863 20.0215 57.108 20.0215 52.203V50.028C20.0215 45.123 21.4352 40.3643 21.8665 39.0218C21.9865 38.6468 22.3352 38.3955 22.729 38.3955H91.324C91.4777 38.3955 91.6052 38.523 91.6052 38.6768V40.4205C91.6052 40.5743 91.4777 40.7018 91.324 40.7018H90.229C89.9215 41.628 88.609 45.8505 88.609 50.178V52.0493C88.609 56.3805 89.9215 60.5993 90.229 61.5255H91.324C91.4777 61.5255 91.6052 61.653 91.6052 61.8068V63.5505C91.6052 63.7043 91.4777 63.8318 91.324 63.8318ZM22.7252 38.958C22.5752 38.958 22.444 39.0518 22.399 39.1943C21.9715 40.518 20.5802 45.2055 20.5802 50.0243V52.1993C20.5802 57.018 21.9715 61.7055 22.399 63.0293C22.444 63.1718 22.5752 63.2655 22.7252 63.2655H91.039V62.0843H90.0227C89.9027 62.0843 89.7977 62.0093 89.7565 61.8968C89.7415 61.848 88.0427 57.0218 88.0427 52.0455V50.1743C88.0427 45.198 89.7415 40.368 89.7565 40.323C89.7977 40.2105 89.9027 40.1355 90.0227 40.1355H91.039V38.9543H22.7252V38.958Z" fill="#221F20"/>
<path d="M128.059 50.1782V52.0494C128.059 57.0369 129.758 61.8069 129.758 61.8069H131.055V63.5507H82.0504C81.9079 63.5507 81.7841 63.4607 81.7391 63.3294C81.3754 62.2419 79.8379 57.3219 79.8379 52.2032V50.0282C79.8379 44.9094 81.3754 39.9894 81.7391 38.9019C81.7841 38.7669 81.9079 38.6807 82.0504 38.6807H131.055V40.4244H129.758C129.758 40.4244 128.059 45.1982 128.059 50.1819V50.1782Z" fill="white"/>
<path d="M131.055 63.8318H82.0504C81.7879 63.8318 81.5554 63.6668 81.4729 63.4155C81.1541 62.4555 79.5566 57.4005 79.5566 52.203V50.028C79.5566 44.8268 81.1541 39.7718 81.4729 38.8118C81.5554 38.5643 81.7879 38.3955 82.0504 38.3955H131.055C131.209 38.3955 131.337 38.523 131.337 38.6768V40.4205C131.337 40.5743 131.209 40.7018 131.055 40.7018H129.96C129.653 41.628 128.34 45.8505 128.34 50.178V52.0493C128.34 56.3805 129.653 60.5993 129.96 61.5255H131.055C131.209 61.5255 131.337 61.653 131.337 61.8068V63.5505C131.337 63.7043 131.209 63.8318 131.055 63.8318ZM82.0504 38.958C82.0316 38.958 82.0129 38.9693 82.0091 38.988C81.6941 39.933 80.1229 44.913 80.1229 50.028V52.203C80.1229 57.3143 81.6941 62.2943 82.0091 63.2393C82.0166 63.258 82.0316 63.2693 82.0504 63.2693H130.774V62.088H129.758C129.638 62.088 129.533 62.013 129.492 61.9005C129.477 61.8518 127.778 57.0255 127.778 52.0493V50.178C127.778 45.2018 129.477 40.3718 129.492 40.3268C129.533 40.2143 129.638 40.1393 129.758 40.1393H130.774V38.958H82.0504Z" fill="#221F20"/>
<path d="M74.7148 63.5507H66.5211C66.3823 63.5507 66.2548 63.4644 66.2098 63.3294C65.8498 62.2419 64.3086 57.3219 64.3086 52.2069V50.0282C64.3086 44.9094 65.8461 39.9894 66.2098 38.9019C66.2548 38.7669 66.3823 38.6807 66.5211 38.6807H74.7148C74.5761 38.6807 74.4486 38.7669 74.4036 38.9019C74.0436 39.9894 72.5023 44.9094 72.5023 50.0282V52.2069C72.5023 57.3219 74.0398 62.2419 74.4036 63.3294C74.4486 63.4644 74.5761 63.5507 74.7148 63.5507Z" fill="#66CEF5"/>
<path d="M74.7148 63.8318H66.5211C66.2586 63.8318 66.0261 63.6668 65.9436 63.4193C65.4936 62.0655 64.0273 57.2655 64.0273 52.203V50.0243C64.0273 44.9618 65.4936 40.158 65.9398 38.808C66.0261 38.5605 66.2586 38.3955 66.5173 38.3955H74.7111C74.8648 38.3955 74.9923 38.523 74.9923 38.6768C74.9923 38.8305 74.8648 38.958 74.7111 38.958C74.6886 38.958 74.6698 38.9693 74.6661 38.988C74.2236 40.3155 72.7836 45.048 72.7836 50.0243V52.203C72.7836 57.1755 74.2273 61.908 74.6698 63.2393C74.6736 63.2543 74.6923 63.2693 74.7148 63.2693C74.8686 63.2693 74.9961 63.3968 74.9961 63.5505C74.9961 63.7043 74.8686 63.8318 74.7148 63.8318ZM66.5173 38.9618C66.4948 38.9618 66.4761 38.973 66.4723 38.9918C66.1573 39.9368 64.5898 44.9205 64.5898 50.028V52.2068C64.5898 57.3105 66.1611 62.2943 66.4761 63.243C66.4798 63.258 66.4986 63.273 66.5211 63.273H74.0886C73.5898 61.7393 72.2248 57.093 72.2248 52.2105V50.0318C72.2248 45.1455 73.5936 40.4918 74.0886 38.9655H66.5211L66.5173 38.9618Z" fill="#221F20"/>
<path d="M40.0801 63.5507H31.8863C31.7476 63.5507 31.6201 63.4644 31.5751 63.3294C31.2151 62.2419 29.6738 57.3219 29.6738 52.2069V50.0282C29.6738 44.9094 31.2113 39.9894 31.5751 38.9019C31.6201 38.7669 31.7476 38.6807 31.8863 38.6807H40.0801C39.9413 38.6807 39.8138 38.7669 39.7688 38.9019C39.4088 39.9894 37.8676 44.9094 37.8676 50.0282V52.2069C37.8676 57.3219 39.4051 62.2419 39.7688 63.3294C39.8138 63.4644 39.9413 63.5507 40.0801 63.5507Z" fill="#66CEF5"/>
<path d="M40.0801 63.8318H31.8863C31.6238 63.8318 31.3913 63.6668 31.3088 63.4193C30.8588 62.0655 29.3926 57.258 29.3926 52.203V50.0243C29.3926 44.9655 30.8588 40.1618 31.3051 38.808C31.3913 38.5605 31.6238 38.3955 31.8826 38.3955H40.0763C40.2301 38.3955 40.3576 38.523 40.3576 38.6768C40.3576 38.8305 40.2301 38.958 40.0763 38.958C40.0538 38.958 40.0351 38.9693 40.0313 38.988C39.7163 39.933 38.1451 44.9168 38.1451 50.0243V52.203C38.1451 57.3068 39.7163 62.2905 40.0313 63.2393C40.0351 63.2543 40.0538 63.2693 40.0763 63.2693C40.2301 63.2693 40.3576 63.3968 40.3576 63.5505C40.3576 63.7043 40.2301 63.8318 40.0763 63.8318H40.0801ZM31.8863 38.9618C31.8638 38.9618 31.8451 38.973 31.8413 38.9918C31.3988 40.3193 29.9588 45.0518 29.9588 50.028V52.2068C29.9588 57.1793 31.4026 61.9118 31.8451 63.243C31.8488 63.258 31.8676 63.273 31.8901 63.273H39.4576C38.9588 61.743 37.5938 57.0968 37.5938 52.2105V50.0318C37.5938 45.138 38.9626 40.4918 39.4576 38.9655H31.8901L31.8863 38.9618Z" fill="#221F20"/>
<path d="M128.059 52.0497C128.059 57.0372 129.757 61.8071 129.757 61.8071H84.3335C84.3335 61.8071 82.6348 57.0334 82.6348 52.0497V50.1784C82.6348 45.1909 84.3335 40.4209 84.3335 40.4209H129.757C129.757 40.4209 128.059 45.1947 128.059 50.1784V52.0497Z" fill="white"/>
<path d="M129.757 62.0884H84.3335C84.2135 62.0884 84.1085 62.0134 84.0673 61.9009C84.0523 61.8521 82.3535 57.0259 82.3535 52.0497V50.1784C82.3535 45.2022 84.0523 40.3721 84.0673 40.3271C84.1085 40.2146 84.2135 40.1396 84.3335 40.1396H129.757C129.847 40.1396 129.934 40.1847 129.986 40.2597C130.039 40.3347 130.054 40.4284 130.02 40.5146C130.005 40.5634 128.34 45.2997 128.34 50.1784V52.0497C128.34 56.9284 130.005 61.6684 130.02 61.7134C130.05 61.7996 130.039 61.8934 129.986 61.9684C129.934 62.0434 129.847 62.0884 129.757 62.0884ZM84.536 61.5259H129.367C128.974 60.2959 127.777 56.2234 127.777 52.0497V50.1784C127.777 46.0009 128.974 41.9321 129.367 40.7021H84.536C84.2285 41.6284 82.916 45.8509 82.916 50.1784V52.0497C82.916 56.3847 84.2285 60.5996 84.536 61.5259Z" fill="#221F20"/>
<path d="M116.925 45.7417H90.1348C89.981 45.7417 89.8535 45.6142 89.8535 45.4604C89.8535 45.3067 89.981 45.1792 90.1348 45.1792H116.925C117.079 45.1792 117.206 45.3067 117.206 45.4604C117.206 45.6142 117.079 45.7417 116.925 45.7417Z" fill="#221F20"/>
<path d="M128.115 48.8848H101.865C101.711 48.8848 101.584 48.7573 101.584 48.6035C101.584 48.4498 101.711 48.3223 101.865 48.3223H128.115C128.269 48.3223 128.396 48.4498 128.396 48.6035C128.396 48.7573 128.269 48.8848 128.115 48.8848Z" fill="#221F20"/>
<path d="M123.813 52.4424H85.3418C85.188 52.4424 85.0605 52.3149 85.0605 52.1611C85.0605 52.0074 85.188 51.8799 85.3418 51.8799H123.813C123.967 51.8799 124.094 52.0074 124.094 52.1611C124.094 52.3149 123.967 52.4424 123.813 52.4424Z" fill="#221F20"/>
<path d="M126.712 56.3174H92.126C91.9722 56.3174 91.8447 56.1899 91.8447 56.0361C91.8447 55.8824 91.9722 55.7549 92.126 55.7549H126.712C126.866 55.7549 126.993 55.8824 126.993 56.0361C126.993 56.1899 126.866 56.3174 126.712 56.3174Z" fill="#221F20"/>
<path d="M82.1913 22.1952C70.7542 14.0461 58.3699 7.22585 45.3695 1.917C44.6536 1.62295 43.9107 1.3311 43.137 1.32665C42.4167 1.32306 41.7209 1.56791 41.0438 1.81226C27.0394 6.89386 13.6184 13.5942 1.1401 21.7388C13.4094 24.9526 25.6817 28.1641 37.9534 31.3808C38.86 31.6196 39.7747 31.8567 40.7141 31.859C41.6506 31.8637 42.5689 31.634 43.4766 31.4031C53.2395 28.9387 63.0048 26.4773 72.7677 24.013C75.6938 23.2744 78.6334 22.5347 81.6369 22.2563" fill="#060B13"/>
<path d="M81.4811 22.7668C76.7248 19.3819 71.8117 16.2218 66.7527 13.3064C61.6937 10.3909 56.497 7.71838 51.1848 5.30473C49.8689 4.70607 48.5482 4.12554 47.2181 3.55725C46.5542 3.27458 45.8873 2.99424 45.2199 2.71916C44.6033 2.46601 43.9874 2.18358 43.331 2.04326C42.024 1.75796 40.6763 2.49034 39.4793 2.93592C38.084 3.45722 36.6951 3.99261 35.3096 4.54442C29.7418 6.76733 24.2752 9.24492 18.9362 11.9803C13.5801 14.7243 8.35218 17.7208 3.27071 20.9505C2.64205 21.3527 2.01633 21.7525 1.39232 22.1605L1.7144 21.1114C12.3542 23.8984 22.9917 26.6824 33.6315 29.4693C34.9604 29.8185 36.2922 30.1655 37.6211 30.5147C38.8049 30.8257 40.0397 31.2495 41.2791 31.2199C42.5185 31.1904 43.7464 30.7778 44.9397 30.4786C46.235 30.1512 47.5304 29.8239 48.828 29.4994C54.1027 28.1688 59.3773 26.8381 64.649 25.5098C67.5916 24.7678 70.5318 24.0229 73.4714 23.2832C76.2955 22.5728 79.131 21.9012 82.0355 21.6246C82.4299 21.585 82.5682 21.9107 82.3881 22.2208C82.17 22.6039 81.6686 22.8526 81.245 22.8915C78.7103 23.1336 76.2277 23.7075 73.762 24.3207C71.1062 24.9839 68.4545 25.6582 65.8004 26.3296C60.4654 27.6746 55.1327 29.0225 49.7977 30.3675C48.4695 30.7018 47.1466 31.0366 45.8184 31.3708C44.4902 31.7051 43.282 32.0639 41.9987 32.3099C40.7155 32.5559 39.5765 32.5251 38.3492 32.2437C37.054 31.9491 35.7704 31.5784 34.4854 31.2423C29.1669 29.8476 23.8455 28.4553 18.5271 27.0607C12.5424 25.4952 6.5584 23.9245 0.57375 22.3591C-0.0971208 22.1824 0.629636 21.4873 0.895823 21.31C6.03707 17.9564 11.337 14.8455 16.7727 11.9905C22.2025 9.14029 27.7634 6.54018 33.4348 4.20651C34.8674 3.61745 36.3086 3.04543 37.7556 2.49276C39.1498 1.95798 40.5453 1.38865 41.9736 0.951261C42.6405 0.748436 43.3257 0.641163 44.0193 0.713731C44.713 0.786299 45.3226 1.03063 45.9421 1.28146C47.304 1.8294 48.6546 2.4054 49.9987 2.99132C55.4563 5.37114 60.7948 8.01742 65.9945 10.9172C71.1661 13.8057 76.1994 16.9424 81.0657 20.3213C81.6832 20.7508 82.2978 21.1825 82.9094 21.6166C83.521 22.0507 82.0122 23.1355 81.4846 22.7592L81.4811 22.7668Z" fill="#060B13"/>
<g opacity="0.11">
<path d="M63.8878 25.0175C58.9225 26.6724 53.6968 27.3521 48.5092 28.0255C45.5333 28.4112 42.5492 28.7987 39.5489 28.7972C36.1374 28.796 32.7548 28.2936 29.4133 27.6438C27.9383 27.3577 26.4599 27.17 25.1486 26.4624C23.6913 25.6791 22.1784 25.0068 20.7323 24.1955C20.4392 24.0307 20.1314 23.8534 19.9366 23.5772C19.5277 23.0065 19.6962 22.2225 19.915 21.5566C20.3367 20.2708 20.887 19.0267 21.5546 17.8522C21.944 17.166 22.3796 16.4959 22.9474 15.9505C24.2662 14.6862 26.1426 14.2288 27.9364 13.8846C33.5694 12.8011 39.3229 12.335 45.0563 12.5018C46.7111 12.5499 48.3651 12.6512 49.9953 12.934C52.484 13.3646 54.8769 14.2058 57.2593 15.0458C58.2414 15.3922 59.261 15.7615 60.0035 16.4938C60.5495 17.0324 60.9033 17.7329 61.2484 18.4163C62.1617 20.2282 63.0774 22.043 63.9908 23.8549" fill="white"/>
<path d="M63.1198 24.1566C63.2011 24.2835 63.0329 24.3066 63.0187 24.337C62.9367 24.1006 63.1561 24.1421 63.1198 24.1566Z" fill="white"/>
<path d="M62.3355 21.8072L62.2982 21.8749L62.2744 21.4824L62.3355 21.8072Z" fill="white"/>
<path d="M61.3002 19.7625C61.636 19.8362 61.6361 20.5249 61.9056 20.8472L61.9898 20.881L61.8819 21.1434C61.6897 20.6833 61.5266 20.0424 61.3025 19.7654L61.3002 19.7625Z" fill="white"/>
<path d="M60.2305 18.9311C60.3563 18.9511 60.1932 18.6545 60.3869 19.1709C60.3653 19.1497 60.3548 19.1484 60.3402 19.1361C60.3187 19.0909 60.2886 19.0286 60.2305 18.9311Z" fill="white"/>
<path d="M60.3426 19.1335C60.1944 19.0308 60.4452 19.3536 60.3426 19.1335V19.1335Z" fill="white"/>
<path d="M59.9053 18.1644L59.9618 18.4593C59.877 18.4308 59.7439 18.2204 59.7534 18.323C59.6593 18.0531 59.74 18.0705 59.9082 18.1621L59.9053 18.1644Z" fill="white"/>
<path d="M59.9375 17.8374L59.9795 17.9811C59.9433 17.9715 59.9171 17.9445 59.9375 17.8374Z" fill="white"/>
<path d="M60.0632 18.2977L59.9798 17.981C60.0372 17.993 60.1164 17.9542 60.0248 18.1224C60.0802 18.0594 60.0481 18.1518 60.0602 18.3L60.0632 18.2977Z" fill="white"/>
<path d="M60.1822 18.4422C60.3122 18.564 60.4453 18.7504 60.3889 18.4315C60.6292 18.9826 60.4184 18.9821 60.1822 18.4422Z" fill="white"/>
<path d="M61.4942 19.5317L61.6736 19.71L61.6848 19.9356C61.6766 19.8225 61.4138 19.5571 61.4942 19.5317Z" fill="white"/>
<path d="M58.8567 17.1052C58.8792 17.0491 59.0093 17.0322 59.0681 16.9856C59.1018 17.0403 59.1302 17.0943 59.1586 17.1483C59.0686 17.1192 58.9143 17.0452 58.8537 17.1075L58.8567 17.1052Z" fill="white"/>
<path d="M59.0707 16.9836C59.0213 16.9031 58.9637 16.8244 58.9038 16.7427C59.1204 16.8773 59.1177 16.9464 59.0707 16.9836Z" fill="white"/>
<path d="M60.164 17.6391C60.2012 17.8249 60.2248 18.0119 60.2531 18.2047C60.2121 17.9837 60.1681 17.765 60.1123 17.5557L60.1663 17.642L60.164 17.6391Z" fill="white"/>
<path d="M57.9226 16.5966C57.958 16.6595 57.9934 16.7223 58.0236 16.7845C57.9632 16.6841 57.8952 16.5801 57.8213 16.4807L57.9226 16.5966Z" fill="white"/>
<path d="M57.1721 16.2821C57.2668 16.4319 56.9274 16.3898 57.0451 16.5023C56.8348 16.4058 56.6663 16.2474 56.5223 16.1079C56.691 16.2182 56.8981 16.2743 57.1751 16.2798L57.1721 16.2821Z" fill="white"/>
<path d="M56.2664 15.8892C56.3505 15.947 56.4297 16.0229 56.5213 16.1083C56.432 16.0499 56.3439 15.9809 56.2664 15.8892Z" fill="white"/>
<path d="M58.4576 16.517C58.4206 16.5367 58.3418 16.5943 58.1722 16.5612L58.3483 16.4696C58.381 16.4867 58.419 16.5045 58.457 16.5223L58.4576 16.517Z" fill="white"/>
<path d="M58.3562 16.4625L58.3504 16.4672C58.2312 16.4133 58.1447 16.3766 58.1061 16.3641C58.1365 16.3783 58.213 16.4085 58.3533 16.4649L58.3562 16.4625Z" fill="white"/>
<path d="M58.4856 16.5285C58.4856 16.5285 58.4681 16.5184 58.4605 16.5149C58.4775 16.5062 58.4857 16.5044 58.4856 16.5285Z" fill="white"/>
<path d="M59.5704 17.0896C59.5297 16.9114 59.3029 16.5887 59.6683 16.7299C59.6809 16.8969 59.4904 16.8134 59.5704 17.0896Z" fill="white"/>
<path d="M58.7144 16.4243C58.8161 16.4681 58.9126 16.5114 59.0084 16.5599C58.9807 16.5914 58.898 16.6138 58.9444 16.6966C58.8723 16.6055 58.7978 16.5114 58.7144 16.4243Z" fill="white"/>
<path d="M58.5947 16.3036L58.7141 16.4243L58.5966 16.3786L58.5947 16.3036Z" fill="white"/>
<path d="M56.9205 15.9591C56.7928 15.8402 56.6268 15.7755 56.4433 15.7008C56.6522 15.7411 56.8698 15.7984 57.0644 15.8691C57.0764 15.9265 57.1297 16.0422 56.9175 15.9615L56.9205 15.9591Z" fill="white"/>
<path d="M57.6539 16.1781C57.6539 16.1781 57.6341 16.1651 57.6241 16.1586C57.6488 16.1535 57.6646 16.1553 57.6539 16.1781Z" fill="white"/>
<path d="M54.5995 15.071L54.6388 15.0542L54.6358 15.0806L54.5995 15.071Z" fill="white"/>
<path d="M57.1068 15.85C57.2643 15.8736 57.3418 15.9414 57.4076 16.0184C57.3071 15.9641 57.1903 15.9131 57.0652 15.8639C57.06 15.8392 57.0619 15.8234 57.1098 15.8477L57.1068 15.85Z" fill="white"/>
<path d="M55.7787 15.6393C55.8671 15.6362 55.9655 15.6396 56.0685 15.6489C55.9753 15.6702 55.7913 15.6915 55.7787 15.6393Z" fill="white"/>
<path d="M57.5616 16.1835L57.5756 16.2012C57.5211 16.2108 57.5358 16.1992 57.5616 16.1835Z" fill="white"/>
<path d="M57.5624 16.1833C57.4988 16.1332 57.4522 16.0744 57.405 16.0208C57.488 16.0652 57.5627 16.1112 57.624 16.1584C57.6023 16.1612 57.5771 16.1716 57.56 16.1803L57.5624 16.1833Z" fill="white"/>
<path d="M54.3591 13.9078C54.342 14.0553 54.6985 14.3183 55.0952 14.2816C55.4004 14.5039 55.0195 14.8868 54.6427 15.0512C54.653 14.9857 54.6703 14.929 54.3515 14.7318C54.4975 14.6927 55.181 14.8068 54.932 14.583C54.4939 14.3559 54.5377 14.5078 54.2893 14.5083C54.5377 14.393 53.7832 14.0625 53.9641 13.8379L54.3443 14.0582C54.3673 14.0209 54.2361 13.9095 54.3644 13.9084L54.3591 13.9078Z" fill="white"/>
<path d="M55.3043 15.2592L55.441 15.3232C55.2684 15.2924 55.1331 15.3087 54.8857 15.3468C54.6733 15.1993 54.6414 15.1288 54.6393 15.0779L55.3457 15.2934L55.3049 15.254L55.3043 15.2592Z" fill="white"/>
<path d="M56.0793 15.5495C56.0217 15.3559 55.701 15.1745 55.968 15.0827C56.3848 15.2406 56.2163 15.3118 56.444 15.4664C55.7818 15.1919 56.6078 15.6189 56.0916 15.5349C56.2166 15.6081 56.3312 15.6561 56.4434 15.7012C56.3152 15.6783 56.1894 15.6584 56.0706 15.6472C56.0765 15.6426 56.0817 15.6432 56.0899 15.6415C56.1257 15.6323 56.1398 15.6259 56.1029 15.6216C56.1029 15.6216 56.0959 15.6128 56.0907 15.6122C56.0931 15.5911 56.088 15.5665 56.0799 15.5442C55.8733 15.5069 56.0364 15.5739 56.0907 15.6122C56.0924 15.6204 56.0941 15.6286 56.0905 15.6362L55.4415 15.3179C55.593 15.3462 55.7696 15.4121 56.0805 15.5389L56.0793 15.5495Z" fill="white"/>
<path d="M59.62 16.233C59.5937 16.2299 59.5872 16.2399 59.5807 16.2498C59.5563 16.2069 59.5482 16.1846 59.62 16.233Z" fill="white"/>
<path d="M59.3294 16.1434C59.3584 16.1921 59.358 16.2642 59.4946 16.3521C59.6361 16.3979 59.5418 16.2908 59.5783 16.2524C59.634 16.3469 59.7671 16.5573 59.4884 16.4288L59.4646 16.3807C59.2122 16.2552 58.811 16.262 58.8436 16.3032C58.9846 16.2154 59.095 16.1615 59.3294 16.1434Z" fill="white"/>
<path d="M57.7412 15.7159L57.2125 15.4409L57.5441 15.4127L57.501 15.4851C57.8274 15.5711 57.7228 15.6443 57.7382 15.7182L57.7412 15.7159Z" fill="white"/>
<path d="M54.5132 15.1242L54.5316 15.3106L54.2849 14.9749L54.5132 15.1242Z" fill="white"/>
<path d="M53.7905 14.8699L53.7705 15.0198L53.606 14.8725L53.7905 14.8699Z" fill="white"/>
<path d="M22.6269 26.1776L22.7657 26.2925C22.6968 26.2418 22.6554 26.2076 22.6269 26.1776Z" fill="white"/>
<path d="M21.4727 25.6079L21.4766 25.5283C21.512 25.5912 21.5182 25.6293 21.4727 25.6079Z" fill="white"/>
<path d="M35.1909 13.7744C34.9529 13.9389 34.6928 14.1783 34.7072 14.0092L34.7695 13.8402C34.9498 13.8505 35.0818 13.8178 35.1938 13.7721L35.1909 13.7744Z" fill="white"/>
<path d="M22.6488 16.2017C22.6548 16.173 22.6585 16.1414 22.6645 16.1128C22.7483 16.1038 22.8262 16.0995 22.8989 16.0946C22.8232 16.1258 22.7392 16.1588 22.6541 16.2023L22.6488 16.2017Z" fill="white"/>
<path d="M22.0156 15.9038C21.9617 16.023 21.9108 16.1399 21.8622 16.2597C21.8831 16.1714 21.9311 16.0568 22.0156 15.9038Z" fill="white"/>
<path d="M29.3506 28.7126L29.5247 28.9143C29.2034 28.853 29.3618 28.7993 29.3506 28.7126Z" fill="white"/>
<path d="M46.2025 13.4358C45.9826 13.4903 45.8097 13.5076 45.6545 13.5109C45.9202 13.4297 46.1381 13.3002 46.2025 13.4358Z" fill="white"/>
<path d="M22.9481 24.4076C23.0303 24.4812 23.0564 24.5323 23.0369 24.562C22.9494 24.4878 22.9105 24.4326 22.9481 24.4076Z" fill="white"/>
<path d="M45.0241 13.4889C45.0634 13.4721 45.1015 13.4659 45.1402 13.4543C45.2994 13.4862 45.4591 13.5127 45.6541 13.5114C45.4576 13.5713 45.2343 13.6094 45.0241 13.4889Z" fill="white"/>
<path d="M54.7889 28.0792C54.8036 28.0676 54.8282 28.0625 54.8429 28.0508C54.851 28.0731 54.8264 28.0783 54.7889 28.0792Z" fill="white"/>
<path d="M61.6504 24.952C61.5801 24.9599 61.4669 24.9921 61.3596 25.0197C61.4078 24.9959 61.4934 24.9711 61.6504 24.952Z" fill="white"/>
<path d="M50.8287 14.1387C50.9836 14.1834 50.8473 14.1622 50.8287 14.1387V14.1387Z" fill="white"/>
<path d="M51.7415 13.69C51.7123 13.6653 51.692 13.6336 51.6963 13.5967C51.6996 13.6371 51.7147 13.6682 51.7415 13.69Z" fill="white"/>
<path d="M43.4062 12.4489C43.4062 12.4489 43.398 12.4506 43.3927 12.45C43.4444 12.4186 43.4333 12.4227 43.4062 12.4489Z" fill="white"/>
<path d="M51.0831 14.1195C51.0209 14.1256 50.9489 14.1253 50.8746 14.122C50.9097 14.118 50.9741 14.1148 51.0831 14.1195Z" fill="white"/>
<path d="M51.031 14.1888C51.0866 14.1926 51.1287 14.1975 51.1709 14.2024C51.186 14.2335 51.163 14.2469 51.031 14.1888Z" fill="white"/>
<path d="M50.6148 14.0845C50.7031 14.1055 50.7874 14.1152 50.8693 14.1221C50.8342 14.126 50.8201 14.1324 50.83 14.1389C50.7861 14.1258 50.7212 14.1102 50.6148 14.0845Z" fill="white"/>
<path d="M41.2222 29.2509C41.2222 29.2509 41.2445 29.2428 41.2563 29.2335C41.4281 29.2935 41.3544 29.2849 41.2222 29.2509Z" fill="white"/>
<path d="M30.7158 12.6349C30.7158 12.6349 30.7287 12.6391 30.7339 12.6397C30.728 12.6443 30.7169 12.6484 30.7116 12.6478L30.7158 12.6349Z" fill="white"/>
<path d="M30.1052 12.6075C30.3908 12.7688 30.5298 12.7209 30.7118 12.6486L30.5875 13.144L30.1023 12.6098L30.1052 12.6075Z" fill="white"/>
<path d="M22.0918 15.9336C22.0916 15.9816 22.1096 16.0104 22.1299 16.0421C22.0742 16.0624 22.0444 16.0429 22.0918 15.9336Z" fill="white"/>
<path d="M29.3164 28.6768L29.3374 28.6792C29.3374 28.6792 29.3478 28.7045 29.3519 28.7156L29.3216 28.6774L29.3164 28.6768Z" fill="white"/>
<path d="M41.163 11.7479C41.0475 11.7771 40.9823 11.8096 40.9405 11.8475C40.9349 11.8041 40.9849 11.7645 41.163 11.7479Z" fill="white"/>
<path d="M52.4134 14.6161L52.0902 14.4798C52.2498 14.5304 52.319 14.509 52.4075 14.506C52.3897 14.5439 52.3075 14.5851 52.4134 14.6161Z" fill="white"/>
<path d="M55.6787 14.4751C55.7224 14.5122 55.781 14.5136 55.8247 14.5508L55.7839 14.6261C55.5741 14.5483 55.4487 14.4323 55.6787 14.4751Z" fill="white"/>
<path d="M52.8888 14.1294C52.9556 13.9903 53.1589 14.102 53.3851 14.2004C53.3722 14.1962 53.357 14.1891 53.3412 14.1873C53.3494 14.4151 53.1182 14.2682 52.8835 14.1288L52.8888 14.1294Z" fill="white"/>
<path d="M53.4411 14.2237C53.5124 14.2533 53.5866 14.2806 53.6597 14.2945C53.6628 14.3829 53.5649 14.2835 53.4411 14.2237Z" fill="white"/>
<path d="M50.3431 13.9116C50.465 13.8964 50.3755 14.1156 50.453 14.0685C50.5404 14.2816 49.7492 13.6931 50.3431 13.9116Z" fill="white"/>
<path d="M53.2216 13.7036L53.0861 13.8587L52.9927 13.6743L53.2216 13.7036Z" fill="white"/>
<path d="M51.2785 13.3336L51.6794 13.3748C51.6652 13.4052 51.7125 13.4347 51.768 13.4625C51.5258 13.4104 51.2565 13.3844 51.2785 13.3336Z" fill="white"/>
<path d="M51.7681 13.4632C51.8933 13.4884 52.0091 13.5259 52.0703 13.573C52.0031 13.5545 51.8616 13.5087 51.7681 13.4632Z" fill="white"/>
<path d="M52.7099 13.5008L52.584 13.5049L52.3078 13.4461L52.7099 13.5008Z" fill="white"/>
<path d="M47.0327 12.7687L46.6015 12.6892C46.5614 12.6205 46.6822 12.5918 46.8437 12.6266C46.9447 12.6757 47.1056 12.7157 47.035 12.7716L47.0327 12.7687Z" fill="white"/>
<path d="M48.4009 12.3697C48.2778 12.3955 48.2676 12.437 48.1918 12.4922L48.2029 12.2586L48.4009 12.3697Z" fill="white"/>
<path d="M47.1164 12.2048C47.0763 12.1361 46.4862 11.9768 47.0488 12.0288C47.0918 12.0952 47.5277 12.1805 47.1164 12.2048Z" fill="white"/>
<path d="M40.5007 12.4027L40.6103 12.402L40.606 12.7833L40.5007 12.4027Z" fill="white"/>
<path d="M34.6007 11.8747C35.1138 11.7314 34.7483 12.0974 35.2077 11.9345C35.3403 12.0113 34.8322 12.0644 34.9637 12.1277C34.6401 12.0634 34.4799 12.1329 34.5983 11.8717L34.6007 11.8747Z" fill="white"/>
<path d="M34.9636 12.1331C35.0156 12.1444 35.0707 12.1535 35.1297 12.1737C35.0378 12.1604 34.9916 12.1443 34.9636 12.1331Z" fill="white"/>
<path d="M62.7423 24.4172L63.0295 24.2423L62.8664 24.4289L62.7423 24.4172Z" fill="white"/>
<path d="M63.4277 24.4964L63.4255 24.2399L63.683 24.3899C63.6068 24.4024 63.4679 24.4263 63.4277 24.4964Z" fill="white"/>
<path d="M18.4638 23.457L18.5109 23.3957C18.5955 23.4723 18.6299 23.6124 18.7528 23.8643C18.6468 23.7425 18.548 23.6056 18.4667 23.4547L18.4638 23.457Z" fill="white"/>
<path d="M22.8977 26.5803L22.8264 26.5507L23.0555 26.4171L22.8977 26.5803Z" fill="white"/>
<path d="M26.4895 28.4761C26.3175 28.4401 26.1347 28.3362 25.9639 28.2896C26.3251 28.4437 26.6096 28.2232 26.4895 28.4761Z" fill="white"/>
</g>
<path d="M24.5477 16.4002C24.771 16.1325 25.1369 16.0389 25.4793 15.9639C30.5127 14.8481 35.6595 14.2501 40.8126 14.1733L40.8145 14.1335C41.0886 14.1413 41.3591 14.1567 41.6354 14.1674C41.9078 14.167 42.1837 14.159 42.4554 14.1639L42.4587 14.2043C47.6083 14.4555 52.7296 15.2266 57.7211 16.5165C58.058 16.6037 58.4224 16.7074 58.6359 16.9832C58.8664 17.2742 58.8679 17.6748 58.8596 18.0449C58.7291 25.0745 58.5992 32.0988 58.4687 39.1284C53.7954 38.9593 42.2999 39.586 41.2006 39.4663C40.0991 39.5493 28.6317 38.5322 23.9564 38.5416C24.0652 31.5148 24.1741 24.4881 24.2806 17.4584C24.2859 17.0906 24.3032 16.6895 24.5418 16.4049L24.5477 16.4002Z" fill="#060B13"/>
<path d="M23.9315 16.2096C24.5113 15.6309 25.2788 15.4585 26.0509 15.2919C26.7492 15.1408 27.4545 14.9984 28.1562 14.8637C29.5918 14.5927 31.0354 14.368 32.4823 14.1837C35.3925 13.8117 38.3201 13.6125 41.2515 13.5633L39.9324 14.4405L39.9343 14.4007C39.9962 13.8446 40.7587 13.5087 41.2535 13.5235C41.8016 13.5391 42.345 13.5488 42.892 13.551C43.1111 13.5497 43.3038 13.6602 43.3226 13.8893L43.3259 13.9297L42.8954 13.5914C47.8213 13.8379 52.7203 14.5459 57.5116 15.7217C58.0409 15.8526 58.6367 15.9405 59.1102 16.2305C59.6135 16.5398 59.7274 17.0763 59.7352 17.6298C59.7502 18.9476 59.6868 20.275 59.6644 21.5938C59.6146 24.2975 59.5642 27.0065 59.5144 29.7102C59.4594 32.7577 59.3991 35.8046 59.3441 38.8521C59.3331 39.4061 58.4793 39.7474 58.0249 39.7293C52.9545 39.5541 47.8645 39.9158 42.795 40.0557C42.1629 40.073 41.4838 40.1516 40.8575 40.0735C40.7838 40.065 40.6317 40.0179 40.9449 40.057C40.8582 40.0442 40.7621 40.0678 40.6736 40.0709C40.5694 40.0721 40.4628 40.0704 40.3591 40.0664C40.0318 40.0577 39.7057 40.0385 39.3819 40.0222C36.9603 39.8878 34.5425 39.6977 32.1262 39.5398C29.2651 39.3516 26.3882 39.1375 23.5208 39.1408C23.3205 39.1415 23.088 39.0291 23.0903 38.8024C23.1504 34.9761 23.2075 31.152 23.2699 27.3285C23.2981 25.4311 23.3287 23.5367 23.3569 21.6393C23.3691 20.7064 23.3867 19.7741 23.3989 18.8412C23.4101 18.0096 23.2888 17.0773 23.799 16.3624C24.045 16.0145 24.5663 15.7548 24.9949 15.7885C25.3812 15.8174 25.5344 16.1075 25.3044 16.4331C25.0938 16.729 25.1658 17.2125 25.1606 17.5563C25.1555 17.9908 25.1474 18.4277 25.1423 18.8622C25.1301 19.7951 25.1125 20.7274 25.1003 21.6603C25.0712 23.4962 25.0451 25.3297 25.016 27.1656C24.9571 30.8667 24.9012 34.5655 24.8423 38.2665L24.4118 37.9282C29.4871 37.9225 34.5609 38.4585 39.6207 38.7713C40.2647 38.8114 40.9118 38.8252 41.5541 38.8571C41.7824 38.8676 41.0235 38.8515 41.6531 38.8552C41.6823 38.856 41.711 38.862 41.7403 38.8627C41.8469 38.8644 41.9505 38.8684 42.0541 38.8725C42.3821 38.8758 42.706 38.8681 43.0352 38.8609C45.4571 38.8086 47.8829 38.7006 50.305 38.6243C53.1716 38.5355 56.0525 38.4164 58.9211 38.5173L57.602 39.3945C57.6989 34.1709 57.7958 28.9473 57.8927 23.7237C57.9162 22.4184 57.9427 21.1108 57.9662 19.8055C57.9785 19.2169 58.0183 18.6209 57.9931 18.0334C57.9626 17.3545 57.5317 17.203 56.9403 17.0542C54.6411 16.4641 52.3078 15.9822 49.9606 15.6214C47.3277 15.2141 44.6783 14.9491 42.0189 14.8163C41.8011 14.807 41.6089 14.7153 41.5884 14.478L41.5851 14.4376C41.7269 14.5502 41.8709 14.6657 42.0156 14.7759C41.4686 14.7738 40.9223 14.7664 40.3771 14.7484L41.6963 13.8712L41.6943 13.911C41.6306 14.4829 40.8724 14.7819 40.3751 14.7882C37.7518 14.8278 35.1336 15.0069 32.5287 15.3236C31.2208 15.484 29.9173 15.6743 28.6201 15.9027C27.9988 16.012 27.3821 16.1272 26.7618 16.2501C26.423 16.3175 26.0865 16.3878 25.7523 16.4611C25.6098 16.4926 25.4679 16.5189 25.3248 16.5556C25.2533 16.574 25.1217 16.6495 25.17 16.6017C24.8951 16.8768 24.3251 17.1416 23.9341 16.992C23.543 16.8425 23.7084 16.4533 23.9379 16.2237L23.9315 16.2096Z" fill="#060B13"/>
<g opacity="0.11">
<path d="M26.8108 19.3293L26.8503 19.3793C26.8089 19.3451 26.7587 19.318 26.702 19.3007C26.7418 19.3026 26.7751 19.3145 26.8108 19.3293Z" fill="white"/>
<path d="M26.552 19.9748C26.4258 19.9121 26.4503 19.8161 26.5022 19.7368C26.5548 19.6521 26.6342 19.5892 26.6164 19.5124L26.5709 19.4671C26.6441 19.4809 26.7166 19.5 26.7862 19.5215C26.698 19.5913 26.4943 19.8052 26.552 19.9748Z" fill="white"/>
<path d="M27.0741 20.6045C26.9753 20.5584 26.9739 20.7317 27.0537 20.458C27.0654 20.4727 27.07 20.4786 27.077 20.4874C27.0739 20.5137 27.0703 20.5454 27.0741 20.6045Z" fill="white"/>
<path d="M27.0771 20.4875C27.0964 20.367 27.1581 20.5717 27.0771 20.4875V20.4875Z" fill="white"/>
<path d="M26.9754 21.0416L27.081 20.8911C27.1405 20.93 27.1427 21.0718 27.191 21.024C27.1269 21.1847 27.0674 21.1458 26.9777 21.0446L26.9754 21.0416Z" fill="white"/>
<path d="M26.768 21.1771L26.8147 21.0971C26.8392 21.1159 26.8449 21.1353 26.768 21.1771Z" fill="white"/>
<path d="M26.9101 20.9296L26.8133 21.0972C26.7736 21.0712 26.684 21.0608 26.8517 21.0189C26.7709 21.0255 26.8489 20.9972 26.9131 20.9272L26.9101 20.9296Z" fill="white"/>
<path d="M26.8773 20.8276C26.8268 20.7337 26.8004 20.6158 26.6948 20.7664C26.7567 20.4639 26.9391 20.5251 26.8773 20.8276Z" fill="white"/>
<path d="M26.2699 19.9936L26.2067 19.8715L26.3096 19.79C26.2567 19.8319 26.3506 20.011 26.2699 19.9936Z" fill="white"/>
<path d="M27.0351 22.0468C26.9782 22.0536 26.8878 21.9817 26.8153 21.9626L26.8896 21.8511C26.9251 21.9139 26.9514 22.0318 27.0351 22.0468Z" fill="white"/>
<path d="M26.8143 21.962L26.7039 22.1307C26.7035 21.9732 26.7546 21.9471 26.8143 21.962Z" fill="white"/>
<path d="M26.4704 21.183L26.6973 20.9077L26.4614 21.238L26.4704 21.183Z" fill="white"/>
<path d="M26.9888 22.7196L27.1275 22.6289L26.9135 22.7936L26.9888 22.7196Z" fill="white"/>
<path d="M26.9283 23.1634C27.0428 23.0966 27.1046 23.2773 27.1769 23.2056C27.1471 23.3249 27.0476 23.4228 26.9546 23.5108C27.0084 23.4156 27.0048 23.3084 26.9283 23.1634Z" fill="white"/>
<path d="M26.8228 23.6581C26.8523 23.6108 26.9058 23.5637 26.96 23.5112C26.9298 23.5638 26.8898 23.6099 26.8228 23.6581Z" fill="white"/>
<path d="M26.7099 22.4332C26.7426 22.4504 26.8297 22.4818 26.8602 22.5868L26.7043 22.5046C26.7043 22.5046 26.7068 22.4595 26.707 22.4355L26.7099 22.4332Z" fill="white"/>
<path d="M26.7021 22.502C26.7035 22.5822 26.7027 22.6355 26.7002 22.6566C26.6997 22.6378 26.7 22.5898 26.6992 22.5043L26.7021 22.502Z" fill="white"/>
<path d="M26.709 22.4148L26.7095 22.4335C26.7095 22.4335 26.6896 22.4205 26.709 22.4148Z" fill="white"/>
<path d="M26.5773 21.6571C26.4808 21.7527 26.3685 21.9612 26.2472 21.7416C26.3617 21.6748 26.4296 21.8028 26.5773 21.6571Z" fill="white"/>
<path d="M26.5145 22.3145L26.4938 22.1253C26.536 22.1302 26.5955 22.1691 26.6438 22.1213L26.5175 22.3122L26.5145 22.3145Z" fill="white"/>
<path d="M26.4592 22.4014L26.5146 22.3145L26.5225 22.3848L26.4592 22.4014Z" fill="white"/>
<path d="M26.7 23.3264C26.6246 23.4004 26.609 23.4893 26.5921 23.5888C26.5674 23.4791 26.5592 23.3661 26.5685 23.263C26.6207 23.2504 26.7157 23.2134 26.7 23.3264Z" fill="white"/>
<path d="M26.6839 22.9218L26.6738 22.9393C26.6738 22.9393 26.6575 22.9187 26.6839 22.9218Z" fill="white"/>
<path d="M26.5137 24.573C26.5137 24.573 26.4939 24.56 26.4863 24.5564L26.5132 24.5542L26.5137 24.573Z" fill="white"/>
<path d="M26.5408 23.241C26.5184 23.1583 26.5584 23.1122 26.6113 23.0703C26.5911 23.1294 26.5756 23.1943 26.5676 23.2628C26.543 23.2679 26.5295 23.269 26.5378 23.2433L26.5408 23.241Z" fill="white"/>
<path d="M26.7252 23.9273C26.6956 23.8838 26.6695 23.8327 26.6486 23.7822C26.6941 23.8276 26.7692 23.9164 26.7252 23.9273Z" fill="white"/>
<path d="M26.7168 22.9731C26.7168 22.9731 26.7227 22.9684 26.7262 22.9608C26.7577 22.9885 26.7448 22.9843 26.7168 22.9731Z" fill="white"/>
<path d="M26.7152 22.9733C26.6892 23.013 26.6458 23.0426 26.6075 23.0729C26.6236 23.0267 26.6449 22.9811 26.6709 22.9414C26.6802 22.9532 26.6977 22.9632 26.7129 22.9703L26.7152 22.9733Z" fill="white"/>
<path d="M25.4643 24.7875C25.6143 24.7836 25.7681 24.5852 25.6227 24.3895C25.7465 24.2197 26.2278 24.3743 26.4846 24.5537C26.4178 24.5539 26.3598 24.5472 26.2588 24.7277C26.1842 24.6576 26.1028 24.3011 25.9551 24.4468C25.8578 24.6864 25.9927 24.6514 26.0606 24.7794C25.8843 24.6655 25.7681 25.0684 25.499 24.9944L25.6114 24.7859C25.5692 24.781 25.4968 24.8527 25.4614 24.7899L25.4643 24.7875Z" fill="white"/>
<path d="M26.4955 24.1999L26.5176 24.125C26.5365 24.2153 26.5929 24.2806 26.696 24.4047C26.6151 24.5261 26.5565 24.5486 26.5078 24.5537L26.5167 24.1783L26.4903 24.1992L26.4955 24.1999Z" fill="white"/>
<path d="M26.5492 23.7846C26.3839 23.8294 26.3016 24.0094 26.1347 23.8833C26.1633 23.6597 26.2824 23.7376 26.3615 23.608C26.2906 23.9654 26.4581 23.5124 26.5311 23.7798C26.5631 23.7115 26.5786 23.6465 26.5906 23.5892C26.6044 23.6548 26.6233 23.7211 26.6482 23.7827L26.6412 23.7739C26.622 23.7557 26.6091 23.7515 26.6208 23.7662L26.6149 23.7709C26.5909 23.7707 26.5715 23.7765 26.5522 23.7823C26.5798 23.8896 26.5925 23.803 26.6149 23.7709C26.6231 23.7691 26.6313 23.7674 26.6366 23.768L26.5206 24.123C26.5058 24.0438 26.5168 23.949 26.5469 23.7816L26.5492 23.7846Z" fill="white"/>
<path d="M25.8847 21.9052C25.8847 21.9052 25.9098 21.9188 25.9204 21.92C25.8968 21.9386 25.8851 21.948 25.8847 21.9052Z" fill="white"/>
<path d="M25.9709 22.0617C25.995 22.0378 26.0613 22.0188 26.0523 21.935C26.0106 21.8581 25.9757 21.9288 25.923 21.9227C25.9712 21.8749 26.0521 21.7535 26.118 21.9213L26.0915 21.9422C26.1376 22.0971 26.3252 22.2977 26.3493 22.2738C26.2061 22.2198 26.1074 22.1736 25.9732 22.0646L25.9709 22.0617Z" fill="white"/>
<path d="M26.2181 22.9319L26.1171 23.2272L25.989 23.0655L26.0756 23.0782C26.056 22.9024 26.1571 22.9515 26.2234 22.9325L26.2181 22.9319Z" fill="white"/>
<path d="M26.5884 24.614L26.7625 24.5862L26.507 24.7407L26.5884 24.614Z" fill="white"/>
<path d="M26.5387 25.0032L26.6887 24.9993L26.5922 25.0948L26.5387 25.0032Z" fill="white"/>
<path d="M36.2417 34.3336L36.2832 34.229C36.2695 34.2781 36.2576 34.3115 36.2417 34.3336Z" fill="white"/>
<path d="M36.1748 35.1478L36.0992 35.1551C36.1456 35.1231 36.179 35.1109 36.1748 35.1478Z" fill="white"/>
<path d="M25.853 34.3997C26.0049 34.4708 26.2303 34.4836 26.0662 34.5179L25.9015 34.5335C25.9158 34.4791 25.8944 34.4339 25.853 34.3997Z" fill="white"/>
<path d="M30.6962 36.2998C30.6838 36.3143 30.6685 36.3313 30.6561 36.3458C30.6254 36.2889 30.5993 36.2378 30.5732 36.1867C30.6093 36.2203 30.6501 36.2597 30.6939 36.2968L30.6962 36.2998Z" fill="white"/>
<path d="M30.7622 36.9749L30.9366 36.8751C30.8954 36.9077 30.8408 36.9414 30.7622 36.9749Z" fill="white"/>
<path d="M36.1499 30.748L36.3074 30.6328C36.3206 30.7945 36.2319 30.7308 36.1499 30.748Z" fill="white"/>
<path d="M26.1615 29.0038C26.2148 29.1194 26.2337 29.2097 26.238 29.2876C26.1555 29.1472 26.0226 29.0277 26.1615 29.0038Z" fill="white"/>
<path d="M34.5097 34.5245C34.5409 34.4854 34.575 34.468 34.6118 34.4723C34.58 34.5166 34.5483 34.537 34.5097 34.5245Z" fill="white"/>
<path d="M26.2111 29.6098C26.1948 29.5892 26.1891 29.5698 26.178 29.5499C26.2112 29.471 26.2392 29.3915 26.2373 29.2925C26.3 29.3959 26.3317 29.5143 26.2105 29.615L26.2111 29.6098Z" fill="white"/>
<path d="M32.6037 18.1293C32.6037 18.1293 32.5744 18.1286 32.5632 18.1326C32.5686 18.1092 32.5838 18.1163 32.6037 18.1293Z" fill="white"/>
<path d="M28.6442 19.3134C28.6811 19.3177 28.7373 19.3162 28.7912 19.3118C28.7654 19.3275 28.7226 19.3278 28.6442 19.3134Z" fill="white"/>
<path d="M26.4859 26.5799C26.5032 26.4992 26.5035 26.566 26.4859 26.5799V26.5799Z" fill="white"/>
<path d="M25.8741 26.127C25.8535 26.1433 25.8306 26.1567 25.7908 26.1547C25.8312 26.1514 25.8565 26.141 25.8741 26.127Z" fill="white"/>
<path d="M25.1374 30.3553L25.1421 30.3612C25.1076 30.3358 25.1123 30.3417 25.1374 30.3553Z" fill="white"/>
<path d="M26.4219 26.4497C26.4393 26.4838 26.4537 26.5201 26.4623 26.5612C26.4483 26.5435 26.4362 26.5101 26.4219 26.4497Z" fill="white"/>
<path d="M26.4984 26.4745C26.4939 26.4446 26.4911 26.4229 26.4883 26.4013C26.5158 26.3938 26.5333 26.4038 26.4984 26.4745Z" fill="white"/>
<path d="M26.4677 26.6954C26.4732 26.648 26.4705 26.6023 26.4619 26.5613C26.4735 26.576 26.4805 26.5848 26.4864 26.5802C26.481 26.6036 26.4767 26.6404 26.4677 26.6954Z" fill="white"/>
<path d="M35.1026 24.9092C35.1026 24.9092 35.0932 24.8974 35.0886 24.8916C35.147 24.8022 35.1427 24.8391 35.1026 24.9092Z" fill="white"/>
<path d="M26.105 36.7652C26.105 36.7652 26.098 36.7564 26.0957 36.7535L26.1121 36.75L26.1079 36.7629L26.105 36.7652Z" fill="white"/>
<path d="M26.4482 36.9522C26.3245 36.7296 26.2407 36.7386 26.1106 36.7555C26.1863 36.6094 26.2561 36.4681 26.3213 36.3208C26.353 36.53 26.3977 36.7434 26.4482 36.9522Z" fill="white"/>
<path d="M30.7534 36.8966C30.7729 36.8668 30.7795 36.8329 30.7832 36.8013C30.8065 36.8307 30.8075 36.8682 30.7534 36.8966Z" fill="white"/>
<path d="M36.1198 30.766L36.1151 30.7601C36.1151 30.7601 36.138 30.7467 36.1515 30.7456L36.1221 30.7689L36.1198 30.766Z" fill="white"/>
<path d="M24.3389 31.4185C24.3614 31.4771 24.3893 31.5124 24.4238 31.5378C24.381 31.5381 24.3443 31.5098 24.3389 31.4185Z" fill="white"/>
<path d="M26.6355 25.7301L26.5749 25.9073C26.5929 25.8213 26.5544 25.7848 26.53 25.7419C26.5722 25.7468 26.6288 25.7881 26.6378 25.7331L26.6355 25.7301Z" fill="white"/>
<path d="M25.6415 24.0821C25.6656 24.0582 25.6505 24.0271 25.6746 24.0032L25.7583 24.0182C25.7455 24.1289 25.6701 24.2029 25.6438 24.085L25.6415 24.0821Z" fill="white"/>
<path d="M26.0499 25.5147C25.9007 25.4894 25.9586 25.3813 25.9973 25.255C25.9967 25.2603 25.9955 25.2708 25.9949 25.2761C26.2081 25.2555 26.129 25.3851 26.0476 25.5118L26.0499 25.5147Z" fill="white"/>
<path d="M26.0061 25.2293C26.0156 25.193 26.0228 25.1538 26.0195 25.1134C26.1056 25.1074 26.0328 25.1603 26.0061 25.2293Z" fill="white"/>
<path d="M26.3419 26.8437C26.3064 26.7809 26.5393 26.8213 26.4798 26.7823C26.678 26.7306 26.2144 27.1599 26.3419 26.8437Z" fill="white"/>
<path d="M25.5563 25.3746L25.7417 25.4335L25.5827 25.4925L25.5563 25.3746Z" fill="white"/>
<path d="M25.6155 26.3798L25.5779 26.1752C25.6095 26.1789 25.6307 26.1573 25.6449 26.127C25.6414 26.2493 25.6676 26.3912 25.6126 26.3822L25.6155 26.3798Z" fill="white"/>
<path d="M25.6471 26.1246C25.6491 26.0608 25.6565 25.9976 25.6924 25.9644C25.6858 25.9983 25.6743 26.0744 25.6471 26.1246Z" fill="white"/>
<path d="M25.4785 25.6465L25.5116 25.7064L25.5161 25.8511L25.4785 25.6465Z" fill="white"/>
<path d="M25.4821 28.5424L25.4119 28.7558C25.3457 28.7748 25.3132 28.7096 25.3411 28.6301C25.3894 28.5823 25.4202 28.5005 25.4798 28.5395L25.4821 28.5424Z" fill="white"/>
<path d="M25.0214 27.8407C25.0568 27.9035 25.096 27.9107 25.1555 27.9497L24.9219 27.9386L25.0184 27.843L25.0214 27.8407Z" fill="white"/>
<path d="M24.9163 28.4748C24.85 28.4938 24.7075 28.7789 24.7422 28.5026C24.8085 28.4836 24.8787 28.2702 24.9163 28.4748Z" fill="white"/>
<path d="M24.9472 31.807L24.9563 31.752L25.3362 31.7908L24.9472 31.807Z" fill="white"/>
<path d="M23.9747 34.9456C23.8195 34.6045 24.1844 34.8178 24.0307 34.533C24.1102 34.4461 24.1531 34.7661 24.2226 34.6727C24.1584 34.8815 24.2445 34.9903 23.9747 34.9456Z" fill="white"/>
<path d="M24.2231 34.6719C24.235 34.6386 24.2446 34.6023 24.2676 34.5649C24.2503 34.6217 24.2361 34.652 24.2231 34.6719Z" fill="white"/>
<path d="M28.0765 19.5812L27.926 19.6812L28.0146 19.5394L28.0765 19.5812Z" fill="white"/>
<path d="M27.7308 19.3384L27.7237 19.5832L27.5983 19.3764C27.6375 19.3836 27.7112 19.3922 27.7338 19.3361L27.7308 19.3384Z" fill="white"/>
<path d="M35.1055 37.2473L35.0571 37.2043C35.0686 37.1282 35.1262 37.0922 35.2396 37.012C35.1959 37.0896 35.1516 37.1726 35.1055 37.2473Z" fill="white"/>
<path d="M36.4771 34.0805L36.4827 34.1239L36.2594 34.0472L36.4771 34.0805Z" fill="white"/>
<path d="M36.6068 32.0986C36.6216 32.1777 36.5813 32.2718 36.5968 32.3457C36.6222 32.1725 36.3321 32.096 36.6068 32.0986Z" fill="white"/>
</g>
<path d="M10.0399 43.1802C10.4899 43.1802 10.9399 42.7302 10.9399 42.2802L11.0898 19.3302C11.0898 18.8802 10.6399 18.4302 10.1899 18.4302C9.73988 18.4302 9.28987 18.8802 9.28987 19.3302L9.28987 42.2802C9.13987 42.7302 9.58987 43.1802 10.0399 43.1802Z" fill="#231F20"/>
<path d="M9.59028 40.1802C9.59028 40.1802 13.7903 50.6802 13.3403 50.6802C12.8903 50.6802 8.09028 51.5802 8.09028 51.5802L9.59028 40.1802Z" fill="#231F20"/>
<path d="M8.09092 52.4808L8.24093 52.4808C10.3409 52.0308 12.741 51.5808 13.191 51.5808C13.491 51.5808 13.791 51.5808 13.941 51.2808C14.391 50.6808 14.5409 50.6808 10.3409 39.8808C10.1909 39.4308 9.59094 39.1308 9.14094 39.4308C8.84094 39.5808 8.54095 39.8808 8.54095 40.1808L7.04095 51.5808C7.04095 51.8808 7.04092 52.1808 7.34092 52.3308C7.64092 52.4808 7.79092 52.4808 8.09092 52.4808ZM12.1409 49.9308C11.5409 50.0808 10.6409 50.2308 9.14094 50.5308L10.041 44.0808C10.941 46.4808 11.8409 48.7308 12.1409 49.9308Z" fill="#231F20"/>
</svg>
