<svg width="361" height="312" viewBox="0 0 361 312" fill="none" xmlns="http://www.w3.org/2000/svg">
<path d="M288.879 141.495C327.725 141.495 359.216 110.004 359.216 71.1579C359.216 32.3119 327.725 0.821045 288.879 0.821045C250.033 0.821045 218.542 32.3119 218.542 71.1579C218.542 110.004 250.033 141.495 288.879 141.495Z" fill="white"/>
<path d="M288.879 142.133C249.651 142.133 217.903 110.386 217.903 71.1578C217.903 31.9297 249.651 0.182373 288.879 0.182373C328.107 0.182373 359.854 31.9297 359.854 71.1578C359.854 110.386 328.107 142.133 288.879 142.133ZM288.879 1.45957C250.381 1.45957 219.181 32.6596 219.181 71.1578C219.181 109.656 250.381 140.856 288.879 140.856C327.377 140.856 358.577 109.656 358.577 71.1578C358.577 32.6596 327.377 1.5508 288.879 1.45957Z" fill="#060B13"/>
<path d="M288.879 125.074C318.656 125.074 342.795 100.935 342.795 71.1577C342.795 41.3809 318.656 17.2419 288.879 17.2419C259.102 17.2419 234.963 41.3809 234.963 71.1577C234.963 100.935 259.102 125.074 288.879 125.074Z" fill="#00ADEF"/>
<path d="M288.879 109.291C309.939 109.291 327.012 92.2182 327.012 71.1578C327.012 50.0973 309.939 33.0244 288.879 33.0244C267.818 33.0244 250.746 50.0973 250.746 71.1578C250.746 92.2182 267.818 109.291 288.879 109.291Z" fill="white"/>
<path d="M288.878 96.2455C302.734 96.2455 313.966 85.0134 313.966 71.1578C313.966 57.3022 302.734 46.0701 288.878 46.0701C275.023 46.0701 263.791 57.3022 263.791 71.1578C263.791 85.0134 275.023 96.2455 288.878 96.2455Z" fill="#00ADEF"/>
<path d="M1.7832 217.67V234.456L119.741 311.179C119.741 311.179 183.509 263.74 223.741 206.175C263.973 148.61 280.576 100.168 280.576 100.168H299.095V94.4209L274.555 86.3928L238.429 91.7753V97.7051L260.597 98.7998C260.597 98.7998 226.843 174.61 151.488 209.824C76.1341 245.038 1.7832 217.761 1.7832 217.67Z" fill="#D9D9D9"/>
<path d="M119.741 311.818C119.649 311.818 119.467 311.818 119.376 311.726L1.41773 235.004C1.23527 234.912 1.14404 234.73 1.14404 234.456V217.67C1.14404 217.488 1.23527 217.305 1.41773 217.123C1.60018 217.032 1.78264 216.94 1.96509 217.032C2.69492 217.305 76.9546 243.853 151.214 209.186C221.277 176.435 255.67 107.74 259.684 99.3474L238.428 98.3439C238.063 98.3439 237.79 98.0702 237.79 97.7053V91.7755C237.79 91.5018 237.972 91.2281 238.337 91.1368L274.463 85.7544C274.555 85.7544 274.646 85.7544 274.737 85.7544L299.277 93.7825C299.551 93.8737 299.734 94.1474 299.734 94.4211V100.168C299.734 100.533 299.46 100.807 299.095 100.807H281.032C279.298 105.733 262.148 152.442 224.288 206.54C184.421 263.467 120.744 311.179 120.105 311.635C120.014 311.726 119.832 311.818 119.741 311.818ZM2.42123 234.182L119.741 310.449C124.941 306.618 185.151 260.456 223.284 205.902C263.06 149.067 279.846 100.625 280.028 100.077C280.12 99.8035 280.393 99.6211 280.667 99.6211H298.548V94.8772L274.646 87.0316L239.158 92.3228V97.0667L260.779 98.0702C261.144 98.0702 261.418 98.3439 261.418 98.7088C261.418 98.8 261.418 98.8912 261.327 98.9825C260.962 99.7123 226.66 175.432 151.853 210.281C81.4248 243.214 10.9967 221.319 2.51246 218.491L2.42123 234.182Z" fill="#060B13"/>
<path d="M299.095 94.5123H278.752C278.752 94.5123 261.236 135.839 233.138 175.34C188.071 238.744 120.745 289.193 120.745 289.193L84.1621 267.298L48.6744 245.951L1.7832 217.67C1.7832 217.67 79.0534 224.239 172.197 165.579C226.204 131.642 257.86 91.7754 257.86 91.7754H238.429L289.425 68.0562L299.095 94.5123Z" fill="white"/>
<path d="M120.745 289.74C120.654 289.74 120.471 289.74 120.38 289.649L1.41873 218.217C1.14505 218.035 1.05382 217.761 1.14505 217.488C1.23628 217.214 1.50996 217.031 1.78364 217.031C2.51347 217.123 79.8749 222.87 171.833 165.031C220.275 134.561 251.11 98.8911 256.492 92.4139H238.429C238.156 92.4139 237.882 92.2315 237.791 91.8666C237.699 91.5929 237.882 91.3192 238.156 91.1367L289.152 67.4174C289.517 67.235 289.882 67.4174 289.973 67.6911C289.973 67.6911 289.973 67.6911 289.973 67.7824L299.643 94.1473C299.735 94.5122 299.552 94.8771 299.278 94.9683C299.187 94.9683 299.096 94.9683 299.096 94.9683H279.117C277.292 99.256 259.959 138.484 233.594 175.523C189.075 238.47 121.84 289.193 121.201 289.649C121.11 289.74 120.927 289.74 120.745 289.74ZM4.2468 218.491L120.654 288.372C125.945 284.358 189.713 235.186 232.499 174.884C260.142 135.93 277.84 94.6034 278.022 94.2385C278.113 93.9648 278.387 93.8736 278.57 93.8736H298.184L289.061 69.0595L241.349 91.228H257.861C258.135 91.228 258.317 91.4104 258.408 91.5929C258.499 91.7753 258.499 92.049 258.317 92.2315C257.952 92.5964 225.931 132.554 172.471 166.217C124.212 196.505 80.4222 209.095 52.1415 214.295C27.8749 218.765 10.5415 218.765 4.2468 218.491Z" fill="#060B13"/>
<path d="M119.743 311.817C119.378 311.817 119.104 311.544 119.104 311.179L120.199 289.193C120.29 288.828 120.564 288.646 120.929 288.646C121.202 288.737 121.476 288.919 121.476 289.284L120.381 311.27C120.381 311.544 120.108 311.817 119.743 311.817Z" fill="#060B13"/>
<path d="M280.577 100.898C280.303 100.898 280.029 100.716 279.938 100.442L278.113 94.6945C278.022 94.3296 278.113 93.9647 278.478 93.8735C278.843 93.7823 279.208 93.8735 279.299 94.2384C279.299 94.2384 279.299 94.2384 279.299 94.3296L281.124 100.077C281.215 100.442 281.033 100.807 280.668 100.898H280.577Z" fill="#060B13"/>
<path d="M137.988 232.449C134.613 233.909 101.497 255.803 84.8022 266.842L49.3145 245.586C60.718 240.477 80.1495 232.084 86.9004 231.446C96.5706 230.533 123.665 225.151 133.609 220.133C143.553 215.116 175.757 193.13 182.234 196.14C188.711 199.151 142.55 230.533 137.988 232.449Z" fill="#D9D9D9"/>
<path d="M153.954 61.4875C153.954 61.4875 158.515 65.8665 158.059 67.0525C157.603 68.2384 155.14 68.056 155.14 68.056" fill="white"/>
<path d="M155.413 68.786H155.048C154.683 68.786 154.41 68.4211 154.501 68.0562C154.501 67.6913 154.866 67.4176 155.139 67.4176C155.96 67.5088 157.238 67.3263 157.511 66.779C157.511 66.2316 155.687 63.9509 153.589 61.8527C153.315 61.579 153.315 61.2141 153.589 60.9404C153.862 60.6667 154.227 60.6667 154.501 60.9404C156.325 62.6737 159.336 65.8667 158.789 67.2351C158.241 68.6035 156.325 68.786 155.413 68.786Z" fill="#060B13"/>
<path d="M151.672 54.8281C154.227 56.1053 154.5 60.0281 154.957 62.4C155.686 65.8667 156.416 69.2422 156.964 72.7088C157.328 74.8983 151.764 76.2667 150.578 75.8106L153.406 84.2036L140.543 82.379L139.448 75.172C139.448 75.172 137.167 67.965 138.353 63.0386C139.174 59.9369 140.907 57.1088 143.188 54.9193C143.188 54.9193 149.118 53.5509 151.672 54.8281Z" fill="white"/>
<path d="M153.406 84.842H153.315L140.452 83.0175C140.178 83.0175 139.995 82.7438 139.904 82.4701L138.809 75.2631C138.718 75.0806 136.438 67.9649 137.715 62.9473C138.536 59.7543 140.36 56.7438 142.823 54.4631C142.915 54.3719 143.006 54.3719 143.097 54.3719C143.371 54.2806 149.301 52.9122 151.946 54.2806C154.409 55.4666 154.866 58.5684 155.322 61.0315C155.413 61.4877 155.504 61.9438 155.595 62.3087C156.325 65.7754 157.055 69.242 157.602 72.7087C157.694 73.5298 157.329 74.3508 156.69 74.807C155.139 75.9017 153.406 76.5403 151.581 76.6315L154.136 84.1122C154.227 84.2947 154.136 84.5684 154.045 84.7508C153.862 84.842 153.68 84.9333 153.406 84.842ZM141.181 81.7403L152.494 83.3824L150.031 75.9929C149.939 75.7192 150.031 75.5368 150.213 75.3543C150.395 75.1719 150.669 75.1719 150.852 75.2631C152.676 75.3543 154.409 74.807 155.869 73.8034C156.234 73.4385 156.416 73.1649 156.416 72.8912C155.869 69.4245 155.139 65.9578 154.409 62.5824C154.318 62.1263 154.227 61.6701 154.136 61.214C153.771 59.0245 153.315 56.2877 151.399 55.3754C149.483 54.4631 145.287 55.1017 143.553 55.5578C141.364 57.6561 139.813 60.3017 138.992 63.221C137.897 67.8736 140.087 74.8982 140.087 74.9894L141.181 81.7403Z" fill="#060B13"/>
<path d="M156.324 70.2454C156.324 70.2454 154.044 72.4349 152.037 70.063L156.324 70.2454Z" fill="white"/>
<path d="M154.135 71.7965H153.952C152.949 71.7053 152.036 71.2492 151.489 70.4281C151.307 70.1544 151.307 69.7895 151.58 69.5158C151.854 69.3334 152.219 69.3334 152.492 69.6071C152.857 70.1544 153.405 70.4281 154.043 70.5193C154.682 70.5193 155.321 70.2457 155.868 69.7895C156.142 69.5158 156.507 69.5158 156.78 69.7895C157.054 70.0632 157.054 70.4281 156.78 70.7018C156.05 71.3404 155.138 71.7965 154.135 71.7965Z" fill="#060B13"/>
<path d="M151.913 61.7178C152.155 61.6491 152.195 61.0433 152.003 60.3646C151.811 59.686 151.459 59.1915 151.216 59.2602C150.974 59.3289 150.933 59.9347 151.126 60.6133C151.318 61.292 151.67 61.7864 151.913 61.7178Z" fill="#060B13"/>
<path d="M138.626 85.0245L138.809 81.0104L154.318 80.0981L157.511 86.6666C151.216 87.0315 144.83 86.4841 138.626 85.0245Z" fill="white"/>
<path d="M153.953 87.3963C148.753 87.3963 143.644 86.7577 138.535 85.663C138.261 85.5717 137.988 85.2981 138.079 85.0244L138.261 81.0103C138.261 80.6454 138.535 80.463 138.9 80.3718L154.409 79.4595C154.682 79.4595 154.865 79.5507 155.047 79.8244L158.24 86.3928C158.332 86.5753 158.332 86.7577 158.24 86.9402C158.149 87.1226 157.967 87.2139 157.784 87.3051C157.693 87.3051 156.233 87.3963 153.953 87.3963ZM139.356 84.477C145.012 85.7542 150.76 86.2103 156.598 86.0279L153.953 80.7367L139.447 81.5577L139.356 84.477Z" fill="#060B13"/>
<path d="M191.63 98.8912C191.63 98.8912 194.732 94.2385 194.915 93.3262C195.097 92.414 195.006 90.4982 195.644 89.221C196.283 87.9438 198.016 86.6666 198.929 88.3999C198.929 88.3999 199.202 85.3894 201.301 86.9403C203.125 88.2175 204.037 90.4982 203.49 92.6877C203.034 94.9684 195.371 106.828 195.371 106.828" fill="white"/>
<path d="M195.279 107.467C195.187 107.467 195.005 107.467 194.914 107.375C194.64 107.193 194.549 106.828 194.731 106.463C197.833 101.719 202.486 94.1473 202.759 92.5964C203.307 90.6806 202.486 88.5824 200.843 87.4876C200.479 87.214 200.205 87.1227 200.022 87.214C199.84 87.3052 199.475 88.035 199.475 88.4912C199.475 88.7648 199.201 89.0385 198.928 89.0385C198.654 89.1298 198.38 88.9473 198.198 88.6736C197.924 88.1262 197.651 88.1263 197.559 88.1263C196.921 88.3087 196.373 88.7648 196.1 89.4034C195.735 90.3157 195.643 91.228 195.552 92.1403C195.552 92.5964 195.461 92.9613 195.37 93.4175C195.187 94.421 192.724 98.0701 191.994 99.1648C191.812 99.4385 191.356 99.5298 191.082 99.2561C190.808 99.0736 190.717 98.7087 190.9 98.435C192.086 96.7017 193.18 94.9684 194.093 93.0526C194.184 92.6877 194.184 92.3227 194.184 91.9578C194.184 90.8631 194.458 89.8596 194.822 88.8561C195.279 87.7613 196.282 86.9403 197.468 86.7578C197.833 86.7578 198.107 86.8491 198.38 87.0315C198.563 86.5754 198.928 86.1192 199.384 85.9368C200.114 85.6631 200.935 85.8455 201.482 86.3929C203.489 87.8526 204.493 90.3157 203.854 92.7789C203.398 95.1508 196.465 105.916 195.643 107.102C195.735 107.284 195.552 107.467 195.279 107.467Z" fill="#060B13"/>
<path d="M96.7536 123.067C96.7536 123.067 95.0202 125.895 94.108 128.084C93.3781 130.182 92.8308 132.281 92.5571 134.47C92.0097 133.74 91.1887 133.467 90.6413 132.919C90.4588 133.831 90.1851 134.744 89.729 135.565C89.2729 136.386 88.4518 136.933 87.4483 137.024C86.9922 137.024 86.4448 136.842 85.9886 136.66C84.3465 135.93 81.6097 134.652 81.4272 132.554C81.4272 131.733 81.6097 130.912 82.0659 130.274C83.6167 127.354 90.1852 119.965 91.1887 118.779" fill="white"/>
<path d="M87.3565 137.572C86.8091 137.572 86.1706 137.389 85.7144 137.116C84.2548 136.477 80.9705 135.109 80.7881 132.554C80.7881 131.642 81.0618 130.73 81.5179 129.909C83.2512 126.624 90.6407 118.414 90.732 118.323C91.0056 118.14 91.4618 118.231 91.6442 118.505C91.8267 118.688 91.8267 118.961 91.6442 119.235C89.7284 121.333 83.9811 127.993 82.6126 130.638C82.2477 131.186 82.0653 131.916 82.0653 132.554C82.1565 134.196 84.346 135.291 86.2618 136.112C86.6267 136.295 86.9916 136.386 87.4477 136.477C88.1776 136.386 88.8162 135.93 89.1811 135.291C89.546 134.561 89.9109 133.74 90.0021 132.828C90.0934 132.554 90.2758 132.372 90.4583 132.372C90.732 132.281 90.9144 132.372 91.0969 132.554C91.2793 132.828 91.553 133.01 91.8267 133.102L92.0091 133.284C92.2828 131.46 92.8302 129.635 93.4688 127.902C94.4723 125.712 96.1144 122.975 96.2056 122.793C96.3881 122.519 96.753 122.428 97.1179 122.61C97.3916 122.793 97.4828 123.158 97.3004 123.431C97.3004 123.431 95.567 126.26 94.6547 128.358C93.9249 130.365 93.3776 132.463 93.1039 134.561C93.1039 134.835 92.8302 135.017 92.6477 135.109C92.3741 135.2 92.1004 135.109 92.0091 134.835C91.7355 134.561 91.4618 134.288 91.1881 134.105L91.0056 134.014C90.8232 134.653 90.6407 135.291 90.2758 135.838C89.6372 136.842 88.5425 137.481 87.3565 137.572Z" fill="#060B13"/>
<path d="M171.286 193.039C171.286 193.039 170.009 201.888 173.658 203.165C177.307 204.442 196.009 189.572 194.732 186.288C193.455 183.004 187.069 181.818 181.321 186.288C178.128 188.751 174.753 191.032 171.286 193.039Z" fill="#060B13"/>
<path d="M174.115 203.895C173.842 203.895 173.659 203.895 173.385 203.804C169.371 202.344 170.466 193.951 170.557 193.039C170.557 192.856 170.74 192.674 170.922 192.582C174.389 190.575 177.673 188.295 180.866 185.832C184.242 183.186 188.256 182.182 191.54 183.095C193.182 183.46 194.55 184.554 195.28 186.105C195.463 186.561 196.01 187.839 191.905 192.035C187.708 196.323 178.038 203.895 174.115 203.895ZM171.835 193.495C171.561 196.049 171.378 201.705 173.842 202.618C175.849 203.347 185.336 197.053 190.992 191.123C193.729 188.295 194.185 186.926 194.094 186.561C193.547 185.375 192.452 184.554 191.175 184.281C188.894 183.642 185.245 184.007 181.596 186.835C178.585 189.207 175.301 191.488 171.835 193.495Z" fill="#060B13"/>
<path d="M133.609 153.172C133.609 153.172 155.96 159.193 172.654 156.091L171.195 193.038C171.195 193.038 177.49 195.319 184.423 186.47C184.423 186.47 191.083 141.13 186.795 138.94C182.507 136.751 143.097 139.305 143.097 139.305L133.609 153.172Z" fill="white"/>
<path d="M173.02 193.951C172.29 193.951 171.469 193.86 170.83 193.586C170.556 193.495 170.374 193.221 170.374 192.947L171.834 156.912C155.321 159.649 133.609 153.902 133.335 153.811C132.97 153.719 132.788 153.354 132.879 152.989C132.879 152.898 132.97 152.807 132.97 152.807L142.276 138.94C142.367 138.758 142.549 138.667 142.823 138.667C146.837 138.393 182.598 136.112 186.886 138.302C191.356 140.582 185.974 178.898 184.879 186.561C184.879 186.653 184.788 186.744 184.788 186.835C180.044 192.947 175.665 193.951 173.02 193.951ZM171.742 192.491C173.202 192.765 178.128 193.13 183.602 186.105C186.795 164.119 188.711 140.582 186.248 139.396C182.872 137.663 154.318 139.123 143.188 139.853L134.613 152.716C138.9 153.811 157.967 158.098 172.381 155.453C172.563 155.453 172.746 155.453 172.928 155.635C173.111 155.726 173.202 156 173.111 156.182L171.742 192.491Z" fill="#060B13"/>
<path d="M121.203 146.695C121.203 146.695 115.364 182.821 114.178 183.368C112.992 183.916 80.9712 211.74 80.9712 211.74L90.4589 220.042C90.4589 220.042 126.22 198.421 128.227 192.035C130.234 185.649 146.199 146.604 146.199 146.604L121.203 146.695Z" fill="white"/>
<path d="M90.4584 220.772C90.2759 220.772 90.1847 220.681 90.0022 220.589L80.5145 212.288C80.332 212.196 80.332 212.014 80.332 211.831C80.332 211.649 80.4233 211.467 80.5145 211.375C85.7145 206.814 111.258 184.737 113.722 183.003C114.634 181.179 118.374 159.831 120.564 146.695C120.655 146.421 120.929 146.147 121.202 146.147H146.199C146.381 146.147 146.655 146.238 146.746 146.421C146.837 146.603 146.929 146.877 146.837 147.059C146.655 147.424 130.872 186.105 128.865 192.4C126.767 198.968 92.2829 219.951 90.8233 220.863C90.732 220.772 90.5496 220.772 90.4584 220.772ZM81.9741 211.831L90.5496 219.312C100.767 213.109 126.037 196.87 127.679 191.944C129.504 186.105 142.823 153.445 145.286 147.424H121.841C116.002 183.368 114.907 183.916 114.543 184.098C113.448 184.645 94.6548 200.793 81.9741 211.831Z" fill="#060B13"/>
<path d="M108.065 180.814C108.065 180.814 128.409 194.681 140.269 192.218C174.479 185.284 191.904 138.028 191.904 138.028C191.904 138.028 168.915 134.926 156.69 131.916L121.202 143.228L108.065 180.814Z" fill="#060B13"/>
<path d="M137.257 193.13C125.215 193.13 108.429 181.817 107.699 181.27C107.426 181.088 107.335 180.814 107.426 180.54L120.654 142.954C120.745 142.772 120.836 142.589 121.019 142.589L156.507 131.277C156.598 131.277 156.78 131.277 156.871 131.277C168.914 134.288 191.812 137.389 191.994 137.389C192.177 137.389 192.359 137.481 192.45 137.663C192.542 137.846 192.542 138.028 192.542 138.21C192.359 138.667 174.57 185.923 140.359 192.856C139.356 193.039 138.261 193.13 137.257 193.13ZM108.794 180.54C111.714 182.456 129.594 193.768 140.085 191.579C171.194 185.284 188.619 144.505 190.991 138.484C186.794 137.937 167.545 135.2 156.689 132.463L121.657 143.684L108.794 180.54Z" fill="#060B13"/>
<path d="M165.996 92.87C165.996 92.87 164.171 85.3893 141.911 83.0174C136.529 82.3788 131.055 83.1086 126.038 85.1157C125.49 88.5823 120.199 131.46 117.918 143.228C117.918 143.228 147.932 149.796 159.975 132.737C159.883 132.737 164.262 96.6104 165.996 92.87Z" fill="#00ADEF"/>
<path d="M140.269 91.1367C140.269 91.1367 117.645 93.7823 111.897 96.5192C106.15 99.256 86.9009 120.695 86.9009 120.695L95.6588 129.088C95.6588 129.088 110.529 114.582 114.725 112.758C118.922 110.933 135.982 114.582 135.982 114.582L140.269 91.1367Z" fill="#00ADEF"/>
<path d="M165.996 92.8701L178.403 113.67L191.904 96.428L199.02 104.274C199.02 104.274 187.16 127.628 181.322 127.537C168.824 127.263 152.129 110.66 152.129 110.66L165.996 92.8701Z" fill="#00ADEF"/>
<path d="M90.4578 220.133C89.728 211.558 85.8964 209.095 83.0683 210.007C80.2403 210.919 78.3245 211.193 79.1455 219.495C79.9666 227.797 84.4367 239.656 88.9069 238.653C93.3771 237.649 91.1876 228.618 90.4578 220.133Z" fill="#060B13"/>
<path d="M88.36 239.382C87.5389 239.382 86.7179 239.109 86.0793 238.561C82.3389 235.916 79.1459 226.61 78.5073 219.586C77.7775 211.467 79.4196 210.554 82.5214 209.551L82.8863 209.459C84.2547 209.003 85.6231 209.277 86.8091 210.098C89.181 211.649 90.7319 215.207 91.0968 220.133C91.2793 221.958 91.4617 223.782 91.6442 225.516C92.4653 232.358 93.1951 238.288 89.0898 239.291C88.8161 239.291 88.6337 239.382 88.36 239.382ZM84.1635 210.463C83.8898 210.463 83.5249 210.554 83.2512 210.645L82.8863 210.737C80.5144 211.558 79.0547 212.014 79.7845 219.495C80.4231 226.063 83.4337 235.095 86.8091 237.558C87.3565 238.014 88.0863 238.196 88.7249 238.105C91.7354 237.375 91.0968 231.993 90.367 225.698C90.1845 223.874 89.9109 222.049 89.8196 220.224C89.3635 214.112 87.2652 211.923 86.0793 211.102C85.5319 210.645 84.8933 210.463 84.1635 210.463Z" fill="#060B13"/>
<path d="M148.479 48.6244C142.823 47.3472 135.616 48.9893 130.963 52.2736C129.321 53.3683 127.861 54.8279 126.858 56.5613C123.938 61.67 125.945 67.9648 124.121 73.4385C122.296 78.9121 116.184 83.0174 112.079 86.849C107.517 91.2279 103.047 95.8806 100.219 101.628C95.6577 111.116 98.2121 119.874 104.689 127.537C105.602 128.631 106.605 129.635 107.7 130.365C109.981 131.733 112.535 132.554 115.181 132.737C120.107 133.375 127.223 133.831 131.51 130.821C134.612 128.631 136.984 123.614 137.167 119.965C137.349 116.316 135.798 112.302 136.893 108.653C138.444 103.27 145.012 100.442 146.563 95.0595C147.658 91.1367 145.833 87.0314 143.552 83.656C141.819 81.1016 139.63 78.0911 140.542 75.1718C141.089 73.4385 142.64 72.1613 143.826 70.7016C145.286 68.8771 146.016 66.5964 146.198 64.3157C146.289 62.2174 145.286 60.3928 145.377 58.3858C147.11 59.2069 149.117 58.3858 150.942 58.2034C153.131 57.9297 155.412 57.656 157.602 57.2911C157.145 54.9192 155.868 52.8209 154.044 51.3613C152.402 49.9929 150.486 48.9893 148.479 48.6244Z" fill="white"/>
<path d="M121.932 133.832C119.743 133.832 117.462 133.649 115.273 133.284C112.536 133.102 109.89 132.189 107.518 130.821C106.332 130 105.238 128.996 104.325 127.81C96.9358 119.053 95.3849 110.112 99.7639 101.172C102.592 95.3332 107.153 90.5894 111.715 86.2104C112.627 85.2982 113.722 84.3859 114.816 83.4736C118.283 80.4631 122.206 77.0876 123.574 73.0736C124.213 70.7017 124.578 68.3297 124.487 65.8666C124.578 62.5824 124.669 59.2069 126.402 56.1052C127.497 54.2806 128.957 52.7297 130.69 51.635C135.708 48.0771 143.097 46.5262 148.753 47.8946C150.943 48.442 152.95 49.3543 154.592 50.8139C156.599 52.3648 157.876 54.6455 158.424 57.1087C158.424 57.2911 158.424 57.4736 158.332 57.5648C158.241 57.6561 158.059 57.7473 157.876 57.8385C155.687 58.2034 153.406 58.4771 151.216 58.7508C150.76 58.7508 150.304 58.842 149.848 58.9333C148.662 59.2069 147.476 59.2982 146.29 59.1157C146.381 59.7543 146.473 60.3017 146.655 60.9403C146.929 61.9438 147.111 63.0385 147.111 64.1333C147.02 66.5964 146.108 68.9683 144.648 70.8841C144.283 71.3403 143.918 71.7052 143.553 72.1613C142.641 72.9824 142.002 73.9859 141.546 75.1718C140.725 77.7262 142.55 80.3718 144.192 82.7438L144.466 83.1087C147.476 87.5789 148.571 91.5929 147.567 95.0596C146.746 97.8876 144.648 100.077 142.55 102.175C140.452 104.274 138.627 106.189 137.897 108.744C137.35 110.842 137.624 112.94 137.897 115.221C138.171 116.772 138.262 118.323 138.262 119.874C138.08 123.432 135.799 128.814 132.332 131.186C129.595 133.102 125.855 133.649 122.206 133.649L121.932 133.832ZM144.374 48.8069C139.722 48.8069 135.16 50.1753 131.329 52.821C129.778 53.9157 128.409 55.2841 127.406 56.9262C125.855 59.6631 125.764 62.7648 125.673 66.049C125.764 68.6034 125.399 71.1578 124.76 73.621C123.301 77.9999 119.195 81.4666 115.638 84.5683C114.543 85.4806 113.539 86.3929 112.627 87.214C108.157 91.4105 103.687 96.1543 100.95 101.81C96.8446 110.295 98.3954 118.779 105.42 127.081C106.241 128.084 107.245 129.088 108.339 129.817C110.529 131.095 112.992 131.916 115.546 132.098C118.283 132.463 126.767 133.558 131.42 130.365C134.431 128.267 136.62 123.34 136.802 119.965C136.802 118.505 136.711 116.954 136.438 115.495C136.164 113.214 135.799 110.842 136.529 108.47C137.35 105.642 139.448 103.453 141.546 101.354C143.645 99.2561 145.469 97.3403 146.199 94.7859C147.111 91.6841 146.108 88.035 143.28 83.9297L143.006 83.5648C141.181 80.9192 139.174 77.9999 140.178 74.8982C140.725 73.621 141.455 72.435 142.459 71.4315C142.824 71.0666 143.188 70.6104 143.462 70.2455C144.831 68.5122 145.56 66.4139 145.652 64.2245C145.652 63.221 145.469 62.3087 145.287 61.3964C145.013 60.3929 144.831 59.3894 144.831 58.2946C144.831 58.1122 144.922 57.9297 145.104 57.7473C145.287 57.6561 145.56 57.6561 145.743 57.7473C146.838 58.2947 148.206 58.021 149.483 57.7473C150.031 57.6561 150.487 57.5648 150.943 57.4736C152.859 57.2911 154.866 57.0175 156.873 56.7438C156.325 54.828 155.231 53.0947 153.68 51.8175C152.129 50.5403 150.304 49.628 148.297 49.1718C147.02 48.8982 145.743 48.8069 144.374 48.8069Z" fill="#060B13"/>
<path d="M148.844 65.4105C148.753 64.4982 148.388 63.6771 147.75 63.0385C147.385 62.4912 146.929 61.9438 146.472 61.4876C145.925 61.0315 145.286 60.8491 144.557 60.9403C144.009 61.1227 143.462 61.4877 143.188 62.035C142.914 62.5824 142.823 63.221 142.823 63.7683C142.823 66.414 144.192 68.9684 146.472 70.3368L146.29 70.1543" fill="white"/>
<path d="M146.473 71.0666C146.381 71.0666 146.29 71.0667 146.108 70.9754C143.645 69.5158 142.094 66.7789 142.094 63.8596C142.094 63.1298 142.276 62.4912 142.55 61.8526C142.915 61.1228 143.553 60.5754 144.283 60.393C145.196 60.2105 146.017 60.4842 146.746 61.0316C147.294 61.4877 147.841 62.1263 148.206 62.7649C148.845 63.586 149.301 64.4982 149.392 65.5017C149.392 65.8667 149.118 66.1403 148.753 66.1403C148.388 66.1403 148.115 65.8667 148.115 65.5017C148.024 64.7719 147.659 64.0421 147.203 63.4947C146.838 62.9474 146.473 62.4912 146.017 62.0351C145.652 61.6702 145.104 61.5789 144.648 61.6702C144.283 61.7614 143.918 62.1263 143.736 62.4912C143.553 62.9474 143.371 63.4947 143.371 63.9509C143.371 66.2316 144.466 68.3298 146.29 69.6982C146.473 69.6982 146.564 69.7895 146.655 69.8807L146.838 70.0631C147.111 70.3368 147.111 70.7017 146.838 70.9754C146.838 71.0667 146.746 71.1579 146.473 71.0666Z" fill="#060B13"/>
<path d="M178.858 128.175H178.676C165.995 125.803 152.219 109.747 151.672 109.017C151.398 108.744 151.49 108.379 151.763 108.105C152.037 107.832 152.402 107.923 152.676 108.196C152.767 108.379 166.725 124.617 178.949 126.898C179.314 126.989 179.497 127.263 179.497 127.628C179.405 127.993 179.132 128.175 178.858 128.175Z" fill="#060B13"/>
<path d="M150.578 75.8105L144.557 74.3508C145.286 75.9017 146.472 77.0877 148.023 77.7263C150.395 78.9122 151.49 78.5473 151.49 78.5473L150.578 75.8105Z" fill="#060B13"/>
<path d="M150.943 79.1858C149.848 79.0946 148.753 78.8209 147.75 78.2736C146.017 77.5437 144.739 76.2665 143.918 74.5332C143.827 74.1683 144.009 73.8034 144.374 73.7122C144.466 73.7122 144.557 73.7122 144.739 73.7122L150.76 75.1718C150.943 75.263 151.125 75.3543 151.217 75.6279L152.129 78.2736C152.22 78.6385 152.038 79.0034 151.764 79.0946C151.49 79.1858 151.217 79.1858 150.943 79.1858ZM145.925 75.3543C146.564 76.0841 147.385 76.7227 148.297 77.1788C149.027 77.5437 149.757 77.8174 150.578 77.9086L150.031 76.3578L145.925 75.3543Z" fill="#060B13"/>
</svg>
